<svg width="39" height="49" fill="none" xmlns="http://www.w3.org/2000/svg"><g filter="url(#filter0_d_376:220)"><path d="M19.5 0C10.953 0 4 6.953 4 15.5c0 8.079 12.865 21.987 14.332 23.548l1.168 1.241 1.168-1.241C22.135 37.488 35 23.578 35 15.5 35 6.953 28.047 0 19.5 0zm0 21.914a6.421 6.421 0 01-6.414-6.413A6.421 6.421 0 0119.5 9.087a6.42 6.42 0 016.414 6.414 6.42 6.42 0 01-6.414 6.413z" fill="#029E7E"/></g><defs><filter id="filter0_d_376:220" x="0" y="0" width="39" height="48.289" filterUnits="userSpaceOnUse" color-interpolation-filters="sRGB"><feFlood flood-opacity="0" result="BackgroundImageFix"/><feColorMatrix in="SourceAlpha" values="0 0 0 0 0 0 0 0 0 0 0 0 0 0 0 0 0 0 127 0" result="hardAlpha"/><feOffset dy="4"/><feGaussianBlur stdDeviation="2"/><feColorMatrix values="0 0 0 0 0 0 0 0 0 0 0 0 0 0 0 0 0 0 0.12 0"/><feBlend in2="BackgroundImageFix" result="effect1_dropShadow_376:220"/><feBlend in="SourceGraphic" in2="effect1_dropShadow_376:220" result="shape"/></filter></defs></svg>