<svg width="122" height="219" fill="none" xmlns="http://www.w3.org/2000/svg"><g clip-path="url(#clip0)"><path d="M117.01 219H4.818C2.065 219 0 216.769 0 214.194V4.806C0 2.23 2.237 0 4.818 0H117.01c2.753 0 4.818 2.231 4.818 4.806v209.217c.172 2.746-2.065 4.977-4.818 4.977z" fill="url(#paint0_linear)"/><path d="M60.914 130.439c11.119 0 20.132-8.991 20.132-20.081s-9.013-20.08-20.132-20.08c-11.12 0-20.133 8.99-20.133 20.08 0 11.09 9.014 20.081 20.133 20.081z" fill="#E6F2F0"/><path d="M31.49-.343v123.402l12.389 19.394v77.062m34.242 0v-77.062l12.39-19.394V-.343" stroke="#E6F2F0" stroke-width="2" stroke-miterlimit="10" stroke-linecap="round" stroke-linejoin="round"/><path d="M45.6 144.684h30.456" stroke="#E6F2F0" stroke-width="4" stroke-miterlimit="10" stroke-linecap="round" stroke-linejoin="round"/><path d="M-1.72 38.445L31.49 5.321M-1.893 74.144l33.382-33.296M-1.549 109.5L31.49 76.547m-33.727 68.824l33.726-33.64m-33.038 70.883l42.33-42.221M.172 218.828l43.707-43.594M90.855 33.296L123.72.515M90.51 69.339l33.727-33.64M90.51 104.866l33.555-33.468m-45.944 81.181l46.116-45.997M77.95 190.681l50.417-50.288m-41.642 79.294l44.739-44.453" stroke="#E6F2F0" stroke-width="2" stroke-miterlimit="10" stroke-linecap="round" stroke-linejoin="round"/><path d="M76.917 144.512H44.223v76.033h32.694v-76.033z" fill="#E6F2F0"/></g><defs><linearGradient id="paint0_linear" x1="60.971" y1="1.048" x2="60.971" y2="219.041" gradientUnits="userSpaceOnUse"><stop stop-color="#009378"/><stop offset="1" stop-color="#4EB066"/></linearGradient><clipPath id="clip0"><path fill="#fff" d="M0 0h122v219H0z"/></clipPath></defs></svg>