<svg width="132" height="128" fill="none" xmlns="http://www.w3.org/2000/svg"><g clip-path="url(#clip0)"><path d="M130.5 43.3h-6.4c-.6 0-1.1.5-1.1 1.1v4.7h-21.1l5.9-13.2c.6-1.2-.3-2.6-1.7-2.6H93.3c-1.4 0-2.3 1.4-1.7 2.6l5.9 13.2H82.1c-.7 0-1.2-.6-1.2-1.3l.5-34.7c0-.3-.1-.6-.3-.8h4.1c1.7 0 3.1-1.2 3.1-2.7l-.1-6.8C88.1 1.2 86.7 0 85 0H48.8c-1.7 0-3.1 1.2-3.1 2.7v6.8c0 1.5 1.4 2.7 3.1 2.7h3.8c-.2.2-.3.5-.3.8v34.8c0 .7-.6 1.3-1.2 1.3H36.2L42.1 36c.6-1.2-.3-2.6-1.7-2.6H27.5c-1.4 0-2.3 1.4-1.7 2.6l5.9 13.2H8.8c-.1 0-.2 0-.3.1v-4.8c0-.6-.5-1.1-1.1-1.1H1.1c-.6 0-1.1.5-1.1 1.1V64c0 .5.5 1 1.1 1h6.4c.6 0 1.1-.5 1.1-1.1v-4.2c.1 0 .2.1.3.1h22.6l-5.6 12.6c-.6 1.2.3 2.6 1.7 2.6h12.9c1.4 0 2.3-1.4 1.7-2.6l-5.6-12.6h14.5c.7 0 1.2.6 1.2 1.3v28.1c0 .7-.6 1.3-1.2 1.3H47c-.7 0-1.2.6-1.2 1.3v34.5c0 .7.6 1.3 1.2 1.3h40c.7 0 1.2-.6 1.2-1.3V92.7c0-.7-.6-1.3-1.2-1.3h-5.2c-.7 0-1.2-.6-1.2-1.3V60.2c0-.7.6-1.3 1.2-1.3h15.8l-6 13.5c-.5 1.2.4 2.6 1.7 2.6h12.9c1.4 0 2.3-1.4 1.7-2.6l-6-13.5h21.2v5c0 .6.5 1.1 1.1 1.1h6.4c.6 0 1.1-.5 1.1-1.1V44.4c-.1-.6-.6-1.1-1.2-1.1z" fill="url(#paint0_linear)"/><path d="M60.6 141.9c-.6 0-1-.4-1-1V13.2c0-.5.4-1 1-1s1 .4 1 1v127.7c0 .6-.4 1-1 1zm10.9 0c-.6 0-1-.4-1-1V12.5c0-.6.4-1 1-1s1 .4 1 1V141c0 .5-.4.9-1 .9z" fill="#fff"/><path d="M88.1 13.3H45.5c-.6 0-1-.4-1-1s.4-1 1-1h42.6c.6 0 1 .4 1 1s-.5 1-1 1zm-27.5 98.6h-15c-.6 0-1-.4-1-1s.4-1 1-1h15c.6 0 1 .4 1 1s-.4 1-1 1zm27.2 0h-15c-.6 0-1-.4-1-1s.4-1 1-1h15c.6 0 1 .4 1 1s-.4 1-1 1zM9.4 66.6c-.6 0-1-.4-1-1V43.2c0-.6.4-1 1-1s1 .4 1 1v22.3c0 .6-.5 1.1-1 1.1zm112.7-.1c-.6 0-1-.4-1-1V43.1c0-.6.4-1 1-1s1 .4 1 1v22.3c0 .6-.4 1.1-1 1.1z" fill="#fff"/></g><defs><linearGradient id="paint0_linear" x1="65.796" y1="-75.612" x2="65.796" y2="209.325" gradientUnits="userSpaceOnUse"><stop stop-color="#009378"/><stop offset="1" stop-color="#4EB066"/></linearGradient><clipPath id="clip0"><path fill="#fff" d="M0 0h131.6v127.5H0z"/></clipPath></defs></svg>