<svg width="63" height="64" fill="none" xmlns="http://www.w3.org/2000/svg"><g clip-path="url(#clip0)"><path d="M2.548 56.025H38.12a2.564 2.564 0 002.548-2.558V41.58a2.564 2.564 0 00-2.548-2.558H2.548A2.564 2.564 0 000 41.58v11.887a2.564 2.564 0 002.548 2.558z" fill="url(#paint0_linear)"/><path d="M62.85 50.759l-7.544-9.28c-.1-.1-.25-.2-.4-.2h-9.492c-.2 0-.45.15-.5.351v16.502H.55c-.25 0-.5.2-.5.501s.2.502.5.502h9.393v.15c0 2.608 2.448 4.765 5.446 4.765 2.997 0 5.445-2.106 5.445-4.765v-.15h24.131v.15c0 2.608 2.198 4.765 5.196 4.765 2.998 0 5.446-2.106 5.446-4.765v-.15H62.5c.25 0 .5-.2.5-.502V51.06c0-.15-.05-.25-.15-.3z" fill="url(#paint1_linear)"/><path d="M32.824 52.815H13.389c-.25 0-.5-.2-.5-.502 0-.3.2-.501.5-.501h19.435c1.499 0 2.748-1.053 2.748-2.307 0-.251.2-.502.5-.502a.5.5 0 01.499.502c0 1.805-1.699 3.31-3.747 3.31zm23.132-2.709H48.66c-.05 0-.15-.05-.15-.15v-1.505c0-.05.05-.15.15-.15h7.295c.05 0 .15.05.15.15v1.505c-.05.1-.1.15-.15.15z" fill="#fff"/><path d="M21.233 38.019H10.092c-.05 0-.15-.05-.15-.15V35.41c0-.05.05-.15.15-.15h11.141c.05 0 .15.05.15.15v2.457c0 .05-.05.15-.15.15z" fill="url(#paint2_linear)"/><path d="M.3 10.082c.25-.251.55-.452.899-.502l22.782-2.408 6.994-.802V.502c0-.251.2-.502.5-.502h8.343c.25 0 .5.2.5.502v23.222h4.646V7.323c0-.25.5-.502.75-.502h9.242c.15 0 .3.05.4.2l7.544 9.28c.05.1.1.2.1.3v7.575c0 .25-.2.501-.5.501l-6.644.05c-.05 2.558-2.448 4.665-5.346 4.665s-5.296-2.107-5.346-4.665h-24.43c-.05 2.558-2.449 4.665-5.346 4.665-2.898 0-5.296-2.107-5.346-4.665H.5c-.25 0-.5-.2-.5-.501V10.934c0-.3.1-.602.3-.852z" fill="url(#paint3_linear)"/><path d="M55.706 16.401h-7.294c-.05 0-.15-.05-.15-.15v-1.505c0-.05.05-.15.15-.15h7.244c.05 0 .15.05.15.15v1.505c0 .1-.05.15-.1.15zm-24.681-.651c-.25 0-.5-.201-.5-.502v-4.464l-22.98 2.758c-.25.05-.5-.15-.55-.401-.05-.25.15-.502.45-.552l23.531-2.808c.15 0 .3.05.4.1.1.1.15.2.15.35v5.017c-.05.25-.25.501-.5.501z" fill="#fff"/></g><defs><linearGradient id="paint0_linear" x1="20.339" y1="39.051" x2="20.339" y2="56.037" gradientUnits="userSpaceOnUse"><stop stop-color="#009378"/><stop offset="1" stop-color="#4EB066"/></linearGradient><linearGradient id="paint1_linear" x1="31.524" y1="41.26" x2="31.524" y2="63.997" gradientUnits="userSpaceOnUse"><stop stop-color="#009378"/><stop offset="1" stop-color="#4EB066"/></linearGradient><linearGradient id="paint2_linear" x1="9.95" y1="36.633" x2="21.383" y2="36.633" gradientUnits="userSpaceOnUse"><stop stop-color="#009378"/><stop offset="1" stop-color="#4EB066"/></linearGradient><linearGradient id="paint3_linear" x1="31.489" y1="0" x2="31.489" y2="29.356" gradientUnits="userSpaceOnUse"><stop stop-color="#009378"/><stop offset="1" stop-color="#4EB066"/></linearGradient><clipPath id="clip0"><path fill="#fff" d="M0 0h63v64H0z"/></clipPath></defs></svg>