<svg width="102" height="49" fill="none" xmlns="http://www.w3.org/2000/svg"><g clip-path="url(#clip0)"><path d="M101.312 22.185H86.937l-2.545 4.561-3.645-9.745-2.407 4.354V1.936A1.78 1.78 0 0076.552.137H25.655a1.78 1.78 0 00-1.789 1.797v6.29c0 .207.07.345.07.552v11.887l-2.683-4.838-3.714 9.745-2.545-4.561H.55a.618.618 0 00-.619.622c0 .345.275.622.62.622h13.617l3.577 6.289 3.645-9.745 2.27 4.078.206.207V44.37c.207.829.895 1.45 1.789 1.45h50.897c.962 0 1.788-.828 1.788-1.796V23.982l2.2-3.94 3.646 9.745 3.577-6.29h13.618a.618.618 0 00.619-.621.691.691 0 00-.688-.691z" fill="url(#paint0_linear)"/><path d="M77.996 34.348H23.523v1.313h54.473v-1.313z" fill="#fff"/><path d="M77.996 48.862H23.523a.618.618 0 01-.62-.622c0-.346.276-.622.62-.622h54.473c.344 0 .619.276.619.622.069.345-.275.622-.62.622z" fill="url(#paint1_linear)"/><path d="M42.505.207H41.2v45.614h1.306V.207zM61.008.138H59.7v45.614h1.306V.138zM32.739 27.714a.618.618 0 01-.62-.622V16.725a.618.618 0 111.239 0v10.367c.069.345-.275.622-.62.622z" fill="#fff"/><path d="M37.897 27.714H27.58a.618.618 0 01-.619-.622c0-.346.276-.622.62-.622h10.316c.344 0 .62.276.62.622a.618.618 0 01-.62.622zm0 2.142H27.58a.618.618 0 01-.619-.622c0-.346.276-.622.62-.622h10.316a.62.62 0 01.62.622.618.618 0 01-.62.622zm13.206-2.142a.618.618 0 01-.619-.622V16.725a.618.618 0 111.238 0v10.367a.618.618 0 01-.619.622z" fill="#fff"/><path d="M56.262 27.714H45.945a.618.618 0 01-.62-.622c0-.346.276-.622.62-.622h10.317c.343 0 .619.276.619.622a.618.618 0 01-.62.622zm13.274-10.298a.618.618 0 01-.619-.622V6.427a.618.618 0 111.238 0v10.367a.618.618 0 01-.619.622z" fill="#fff"/><path d="M74.695 7.05H64.377a.618.618 0 01-.62-.623.62.62 0 01.62-.622h10.317c.343 0 .619.277.619.622a.618.618 0 01-.62.622zM56.262 29.856H45.945a.618.618 0 01-.62-.622c0-.346.276-.622.62-.622h10.317c.343 0 .619.277.619.622a.618.618 0 01-.62.622z" fill="#fff"/></g><defs><linearGradient id="paint0_linear" x1="50.954" y1=".49" x2="50.954" y2="45.928" gradientUnits="userSpaceOnUse"><stop stop-color="#009378"/><stop offset="1" stop-color="#4EB066"/></linearGradient><linearGradient id="paint1_linear" x1="22.862" y1="48.236" x2="78.653" y2="48.236" gradientUnits="userSpaceOnUse"><stop stop-color="#009378"/><stop offset="1" stop-color="#4EB066"/></linearGradient><clipPath id="clip0"><path fill="#fff" d="M0 0h102v49H0z"/></clipPath></defs></svg>