<svg width="64" height="134" fill="none" xmlns="http://www.w3.org/2000/svg"><g clip-path="url(#clip0)"><path d="M62.2 127.3h-6.9c.3-.5.4-1.2.3-1.9L45.9 18.3c0-1.4-.8-2.5-1.8-2.5H33.8V8.5c0-.6-.4-1-1-1s-1 .4-1 1v7.3h-8.6c-1 0-1.8 1.1-1.8 2.5L19 43.4v.4l-7.3 81.7c-.1.7.1 1.3.3 1.9H1c-.6 0-1 .4-1 1s.4 1 1 1h61.2c.6 0 1-.4 1-1s-.5-1.1-1-1.1z" fill="url(#paint0_linear)"/><path d="M28.7 11.6c-.6 0-1-.4-1-1V1c0-.6.4-1 1-1s1 .4 1 1v9.6c0 .6-.4 1-1 1z" fill="url(#paint1_linear)"/><path d="M48.3 48.2c-.2 0-.5-.1-.7-.3l-27-25.3c-.4-.4-.4-1 0-1.4.4-.4 1-.4 1.4 0l26.9 25.4c.4.4.4 1 0 1.4-.1.1-.4.2-.6.2zM49.6 71c-.2 0-.4-.1-.6-.2L19 47.9c-.4-.3-.5-1-.2-1.4.3-.4 1-.5 1.4-.2l30 22.8c.4.3.5 1 .2 1.4-.2.4-.5.5-.8.5z" fill="#fff"/><path d="M17.6 71c-.3 0-.6-.1-.8-.4-.3-.4-.2-1.1.2-1.4l30.6-22.8c.4-.3 1.1-.2 1.4.2.3.4.2 1.1-.2 1.4L18.2 70.8c-.2.1-.4.2-.6.2zm1.3-22.9c-.3 0-.5-.1-.7-.3-.4-.4-.4-1 .1-1.4L46 20.7c.4-.4 1-.4 1.4.1.4.4.4 1-.1 1.4L19.6 47.9c-.2.2-.4.2-.7.2z" fill="#fff"/><path d="M53.9 97.9c-.2 0-.4-.1-.6-.2L17 71.7c-.4-.3-.6-.9-.2-1.4.3-.4.9-.6 1.4-.2l36.4 26c.4.3.6.9.2 1.4-.3.2-.6.4-.9.4z" fill="#fff"/><path d="M13.7 97.9c-.3 0-.6-.1-.8-.4-.3-.4-.2-1.1.2-1.4l36-26c.4-.3 1.1-.2 1.4.2.3.4.2 1.1-.2 1.4l-36 26c-.2.1-.4.2-.6.2z" fill="#fff"/><path d="M55.4 126.9c-.2 0-.4-.1-.6-.2L12.1 98.6c-.5-.3-.6-.9-.3-1.4.3-.4 1-.6 1.4-.2L56 125.1c.5.3.6.9.3 1.4-.3.2-.6.4-.9.4z" fill="#fff"/><path d="M11.6 126.9c-.3 0-.6-.2-.8-.4-.3-.5-.2-1.1.3-1.4l42.3-29c.5-.3 1.1-.2 1.4.3.3.5.2 1.1-.3 1.4l-42.3 29c-.2 0-.4.1-.6.1z" fill="#fff"/><path d="M7.8 118.6c-.6-.1-1-.5-1-1.1.1-.8 7.4-82.4 7.7-84.9.1-.5.5-1 1.1-.9.5.1 1 .5.9 1.1-.2 2.5-7.6 84.1-7.7 84.9 0 .5-.5.9-1 .9z" fill="url(#paint2_linear)"/><path d="M50.1 133.6H15.3c-.6 0-1-.4-1-1s.4-1 1-1h34.8c.6 0 1 .4 1 1s-.5 1-1 1z" fill="url(#paint3_linear)"/></g><defs><linearGradient id="paint0_linear" x1="31.597" y1="7.5" x2="31.597" y2="129.329" gradientUnits="userSpaceOnUse"><stop stop-color="#009378"/><stop offset="1" stop-color="#4EB066"/></linearGradient><linearGradient id="paint1_linear" x1="27.742" y1="5.807" x2="29.742" y2="5.807" gradientUnits="userSpaceOnUse"><stop stop-color="#009378"/><stop offset="1" stop-color="#4EB066"/></linearGradient><linearGradient id="paint2_linear" x1="11.655" y1="31.668" x2="11.655" y2="118.56" gradientUnits="userSpaceOnUse"><stop stop-color="#009378"/><stop offset="1" stop-color="#4EB066"/></linearGradient><linearGradient id="paint3_linear" x1="14.312" y1="132.579" x2="51.072" y2="132.579" gradientUnits="userSpaceOnUse"><stop stop-color="#009378"/><stop offset="1" stop-color="#4EB066"/></linearGradient><clipPath id="clip0"><path fill="#fff" d="M0 0h63.2v133.6H0z"/></clipPath></defs></svg>