<svg width="135" height="141" fill="none" xmlns="http://www.w3.org/2000/svg"><g clip-path="url(#clip0)"><path d="M130.381 32.179H79.443v-.134H58.329v.134H4.486C1.979 32.179 0 33.514 0 35.25v10.548c0 .267.132.534.132.935v58.082c0 2.404 1.847 4.674 4.355 4.674h125.762c2.508 0 4.487-1.336 4.487-3.071V35.25c.264-1.602-1.847-3.071-4.355-3.071z" fill="url(#paint0_linear)"/><path d="M142.126 60.352h-18.607v2.67h18.607v-2.67zm0 16.156h-18.607v2.671h18.607v-2.67zM84.458 60.352H51.862v2.67h32.596v-2.67zm0 16.156H51.862v2.671h32.596v-2.67zm13.196-46.465h-2.64v80.781h2.64V30.043zm14.384 0h-2.639v80.781h2.639V30.043z" fill="#fff"/><path d="M118.372 88.259h-8.181v-2.67h8.181c1.716 0 3.168-1.47 3.168-3.205V56.08c0-1.736-1.452-3.205-3.168-3.205h-7.126v-2.67h7.126c3.168 0 5.807 2.67 5.807 5.875v26.304c.132 3.338-2.507 5.875-5.807 5.875zm-22.434 0h-7.126c-3.167 0-5.806-2.67-5.806-5.875V56.08c0-3.205 2.64-5.875 5.806-5.875h8.182v2.67h-8.182c-1.715 0-3.167 1.469-3.167 3.205v26.304c0 1.735 1.452 3.204 3.167 3.204h7.126v2.67zM13.592 60.352H-5.015v2.67h18.607v-2.67z" fill="#fff"/><path d="M68.49 21.497c-.792 0-1.32-.534-1.32-1.335V1.335c0-.8.528-1.335 1.32-1.335s1.32.534 1.32 1.335v18.827c0 .668-.528 1.335-1.32 1.335z" fill="url(#paint1_linear)"/><path d="M79.97 26.17c-.395 0-.66-.133-.923-.4a1.301 1.301 0 010-1.87l13.197-13.352c.527-.534 1.32-.534 1.847 0a1.301 1.301 0 010 1.87L80.894 25.77c-.263.267-.527.4-.923.4z" fill="url(#paint2_linear)"/><path d="M56.745 26.972c-.396 0-.66-.134-.924-.401L42.625 13.219a1.301 1.301 0 010-1.87c.528-.534 1.32-.534 1.847 0L57.67 24.702a1.301 1.301 0 010 1.869c-.132.267-.528.4-.924.4z" fill="url(#paint3_linear)"/><path d="M68.226 140.867c-.792 0-1.32-.535-1.32-1.336v-18.826c0-.802.528-1.336 1.32-1.336s1.32.534 1.32 1.336v18.826c0 .668-.528 1.336-1.32 1.336z" fill="url(#paint4_linear)"/><path d="M43.68 130.585c-.396 0-.66-.133-.923-.4a1.302 1.302 0 010-1.87l13.196-13.352c.528-.534 1.32-.534 1.847 0a1.301 1.301 0 010 1.869l-13.196 13.353c-.264.267-.66.4-.924.4z" fill="url(#paint5_linear)"/><path d="M93.167 129.784c-.396 0-.66-.133-.924-.4l-13.196-13.353a1.301 1.301 0 010-1.869c.528-.534 1.32-.534 1.847 0l13.197 13.352a1.302 1.302 0 010 1.87c-.264.267-.66.4-.924.4z" fill="url(#paint6_linear)"/><path d="M13.592 76.508H-5.015v2.671h18.607v-2.67zm28.373-44.863h-2.64v78.778h2.64V31.645zm-14.253 0h-2.639v78.778h2.64V31.645z" fill="#fff"/><path d="M26.92 88.259h-8.18c-3.168 0-5.807-2.67-5.807-5.875V56.08c0-3.205 2.639-5.875 5.806-5.875h7.126v2.67H18.74c-1.716 0-3.167 1.469-3.167 3.205v26.304c0 1.735 1.451 3.204 3.167 3.204h8.182v2.67zm21.379 0h-7.126v-2.67h7.126c1.715 0 3.167-1.47 3.167-3.205V56.08c0-1.736-1.452-3.205-3.167-3.205h-8.182v-2.67H48.3c3.167 0 5.806 2.67 5.806 5.875v26.304c0 3.338-2.639 5.875-5.806 5.875z" fill="#fff"/></g><defs><linearGradient id="paint0_linear" x1="67.464" y1="32.119" x2="67.464" y2="109.571" gradientUnits="userSpaceOnUse"><stop stop-color="#009378"/><stop offset="1" stop-color="#4EB066"/></linearGradient><linearGradient id="paint1_linear" x1="67.221" y1="10.733" x2="69.86" y2="10.733" gradientUnits="userSpaceOnUse"><stop stop-color="#009378"/><stop offset="1" stop-color="#4EB066"/></linearGradient><linearGradient id="paint2_linear" x1="78.695" y1="18.25" x2="94.47" y2="18.25" gradientUnits="userSpaceOnUse"><stop stop-color="#009378"/><stop offset="1" stop-color="#4EB066"/></linearGradient><linearGradient id="paint3_linear" x1="42.346" y1="19.055" x2="58.12" y2="19.055" gradientUnits="userSpaceOnUse"><stop stop-color="#009378"/><stop offset="1" stop-color="#4EB066"/></linearGradient><linearGradient id="paint4_linear" x1="66.956" y1="130.127" x2="69.595" y2="130.127" gradientUnits="userSpaceOnUse"><stop stop-color="#009378"/><stop offset="1" stop-color="#4EB066"/></linearGradient><linearGradient id="paint5_linear" x1="42.346" y1="122.61" x2="58.12" y2="122.61" gradientUnits="userSpaceOnUse"><stop stop-color="#009378"/><stop offset="1" stop-color="#4EB066"/></linearGradient><linearGradient id="paint6_linear" x1="78.695" y1="121.805" x2="94.47" y2="121.805" gradientUnits="userSpaceOnUse"><stop stop-color="#009378"/><stop offset="1" stop-color="#4EB066"/></linearGradient><clipPath id="clip0"><path fill="#fff" d="M0 0h135v141H0z"/></clipPath></defs></svg>