<svg width="95" height="123" fill="none" xmlns="http://www.w3.org/2000/svg"><g clip-path="url(#clip0)"><path d="M77.1 122.3H16.6c-1.6 0-2.8-1.3-2.8-2.8V11.8c0-1.6 1.3-2.8 2.8-2.8h60.5c1.6 0 2.8 1.3 2.8 2.8v107.7c0 1.6-1.3 2.8-2.8 2.8z" fill="url(#paint0_linear)"/><path d="M69.2 102.4c-.2 0-.4-.1-.6-.2l-8.1-5.4-5.3 5.1c-.3.3-.9.4-1.3.1l-7.2-5.2-6 5.2c-.4.3-.9.3-1.3 0l-6.5-5.3-7.6 5.3c-.4.2-.8.2-1.2 0-.3-.3-.5-.7-.3-1.1l12.6-36.4c.1-.4.5-.7.9-.7h18c.4 0 .8.3.9.6L70 101c.2.4 0 .9-.3 1.1-.1.2-.3.3-.5.3zM33 94.5c.2 0 .4.1.6.2l6.5 5.3 5.9-5.2c.4-.3.9-.3 1.2-.1l7.1 5.2 5.3-5.1c.3-.3.9-.4 1.2-.1l6.2 4.1-12.5-33H38L26.7 98.6l5.7-4c.2-.1.4-.1.6-.1z" fill="#fff"/><path d="M37.1 65.8c-.6 0-1-.4-1-1V9.3c0-.6.4-1 1-1s1 .4 1 1v55.5c0 .6-.5 1-1 1zm18.3 0c-.6 0-1-.4-1-1V9.3c0-.6.4-1 1-1s1 .4 1 1v55.5c0 .6-.5 1-1 1z" fill="#fff"/><path d="M55.4 54.4H37.1v2h18.3v-2z" fill="#fff"/><path d="M93.3 6H1c-.6 0-1-.5-1-1s.4-1 1-1h92.3c.6 0 1 .4 1 1s-.4 1-1 1z" fill="url(#paint1_linear)"/><path d="M37 2H1.2c-.6 0-1-.4-1-1s.4-1 1-1H37c.6 0 1 .4 1 1s-.4 1-1 1z" fill="url(#paint2_linear)"/><path d="M93.3 2H57.5c-.6 0-1-.4-1-1s.4-1 1-1h35.8c.6 0 1 .4 1 1s-.4 1-1 1z" fill="url(#paint3_linear)"/></g><defs><linearGradient id="paint0_linear" x1="46.839" y1="9.543" x2="46.839" y2="122.391" gradientUnits="userSpaceOnUse"><stop stop-color="#009378"/><stop offset="1" stop-color="#4EB066"/></linearGradient><linearGradient id="paint1_linear" x1="0" y1="4.952" x2="94.34" y2="4.952" gradientUnits="userSpaceOnUse"><stop stop-color="#009378"/><stop offset="1" stop-color="#4EB066"/></linearGradient><linearGradient id="paint2_linear" x1=".214" y1="1" x2="38.006" y2="1" gradientUnits="userSpaceOnUse"><stop stop-color="#009378"/><stop offset="1" stop-color="#4EB066"/></linearGradient><linearGradient id="paint3_linear" x1="56.547" y1="1" x2="94.34" y2="1" gradientUnits="userSpaceOnUse"><stop stop-color="#009378"/><stop offset="1" stop-color="#4EB066"/></linearGradient><clipPath id="clip0"><path fill="#fff" d="M0 0h94.3v122.3H0z"/></clipPath></defs></svg>