<svg width="27" height="27" fill="none" xmlns="http://www.w3.org/2000/svg"><path d="M24.242 4.008a.393.393 0 00-.51-.597l-.847.722a.392.392 0 00.51.598l.847-.723zm-1.712 8.114v.483a.392.392 0 10.785 0v-.483a.392.392 0 10-.785 0zM2.689 20.228a1.048 1.048 0 101.483 1.484 1.048 1.048 0 00-1.483-1.484zm.927.928a.263.263 0 11-.372-.372.263.263 0 01.372.372zm3.631-2.521a1.048 1.048 0 10-1.48-1.483 1.048 1.048 0 001.48 1.483zm-.927-.928a.263.263 0 11.373.372.263.263 0 01-.373-.372zM4.522 18.91a.392.392 0 000 .554l.413.414a.391.391 0 00.555 0 .392.392 0 000-.555l-.413-.414a.392.392 0 00-.555 0zM12.823 6.1h1.827a.392.392 0 100-.784h-1.827a.392.392 0 100 .785z" fill="#029E7E"/><path d="M26.398 26.006h-6.523v-1.57a.739.739 0 00-.738-.738h-.748V22a.612.612 0 00-.611-.611h-.493L15.463 7.31h.687a.898.898 0 00.897-.897V4.89l4.192.45v11.637a.393.393 0 00.59.34c1.16-.672 2.093-1.731 2.772-3.149a.392.392 0 10-.707-.34c-.488 1.019-1.115 1.827-1.87 2.413V3.637l2.528-2.157c.774 4.48.737 8.153-.108 10.923a.392.392 0 00.75.23c.896-2.936.927-6.81.092-11.514a.657.657 0 00-1.07-.384l-2.695 2.3L10.091.806a.392.392 0 10-.15.77L21.24 3.78v.773L2.768 2.568l.093-.17A3.101 3.101 0 016.183.843l2.19.427a.392.392 0 10.15-.77L6.333.073a3.884 3.884 0 00-4.16 1.947l-.377.686a.392.392 0 00.302.58l1.257.134v.734c0 .48.39.87.87.87h.416v11.63l-1.62 1.618a.392.392 0 10.556.555l2.069-2.07a1.41 1.41 0 111.996 1.997l-3.275 3.275c-.55.55-1.446.55-1.996 0a1.413 1.413 0 010-1.996l.096-.097a.392.392 0 10-.555-.555l-.096.097a2.199 2.199 0 00.24 3.313l-1.045 3.215H.392a.392.392 0 100 .785h26.006a.392.392 0 100-.785zm-8.793-2.308H9.867v-1.524h7.738v1.524zm-1.41-4.615l-4.022-1.56 3.618-1.558.404 3.118zm-.557-4.302l-3.114-1.503 2.725-1.504.39 3.007zm-.948-7.33l.385 2.978-2.18-1.414L14.69 7.45zm-1.06-.118l-.938.817.106-.817h.832zM12.493 9.69l2.257 1.464-2.635 1.453.378-2.917zm-.542 4.183l3.166 1.528-3.562 1.533.396-3.062zm-.543 4.194l4.262 1.654-3.063 1.664-.008.005h-1.62l.43-3.323zm2.835 3.323l2.103-1.143.148 1.143h-2.251zm2.019-14.977c0 .062-.05.112-.112.112h-4.828a.112.112 0 01-.112-.112v-2.15l5.052.543v1.607zM4.139 4.154v-.65l1.787.193v.457a.086.086 0 01-.085.086H4.225a.086.086 0 01-.086-.086zM8.197 19.31a2.196 2.196 0 00-2.771-3.381V5.025h.415c.48 0 .87-.39.87-.87V3.78l3.714.399v2.233c0 .495.402.897.897.897h.687l-1.822 14.08h-.493a.612.612 0 00-.611.611v1.697h-.748a.739.739 0 00-.737.738v1.57H6.209l-1.156-3.553 3.144-3.144zm-6.361 6.697l.932-2.864a2.21 2.21 0 001.629-.17l.987 3.034H1.836zm6.546 0v-1.523H19.09v1.523H8.382z" fill="#029E7E"/></svg>