<svg width="26" height="22" fill="none" xmlns="http://www.w3.org/2000/svg"><path d="M21.355 0c-1.963 0-3.514 1.576-3.514 3.54a3.502 3.502 0 003.514 3.514c1.94 0 3.54-1.576 3.54-3.54 0-1.963-1.576-3.514-3.54-3.514zm0 6.278a2.762 2.762 0 01-2.763-2.763c0-1.527 1.26-2.74 2.764-2.74a2.762 2.762 0 012.763 2.764 2.742 2.742 0 01-2.764 2.74z" fill="#029E7E"/><path d="M22.472 4.072c-.024-.073-.024-.121-.073-.194-.024-.048-.048-.12-.097-.17-.048-.048-.072-.096-.12-.145a.435.435 0 00-.17-.121c-.049-.049-.122-.073-.17-.097-.073-.024-.121-.073-.194-.097a1.668 1.668 0 01-.194-.073.184.184 0 01-.097-.048c-.024-.024-.073-.024-.097-.049-.024-.024-.073-.024-.097-.048l-.073-.073c-.024-.024-.048-.048-.048-.097-.024-.024-.024-.073-.024-.097v-.121c0-.024.024-.073.024-.097.024-.024.024-.073.048-.097l.073-.073a.185.185 0 01.121-.048c.049-.024.073-.024.122-.024h.145c.049 0 .073 0 .121.024.049 0 .097.024.121.024.025 0 .073.024.097.024.049 0 .073.025.097.025l.122.048.024-.145.048-.388v-.097l-.097-.024c-.024 0-.072-.025-.097-.025-.024 0-.048-.024-.097-.024-.024 0-.072-.024-.12-.024-.05 0-.074-.024-.122-.024h-.024v-.46h-.582v.484h-.024c-.073.024-.146.048-.219.097a.434.434 0 00-.17.121 1.054 1.054 0 00-.145.17c-.048.048-.072.121-.097.194l-.072.218c-.024.073-.024.17-.024.242 0 .073 0 .121.024.194.024.073.024.121.072.194.025.049.073.121.097.17.049.048.073.097.122.145a.423.423 0 00.17.121c.048.049.12.073.169.097.073.025.145.073.194.097.073.025.145.049.194.073a.18.18 0 01.097.049c.024.024.073.024.097.048.024.024.048.048.072.048l.073.073c.024.024.024.049.049.097 0 .024.024.073.024.121v.122a.183.183 0 01-.049.097l-.072.072a.335.335 0 01-.097.073c-.024.024-.073.024-.097.048-.024 0-.073.025-.121.025h-.315c-.049 0-.098-.025-.122-.025a.345.345 0 01-.145-.048c-.049-.024-.097-.024-.146-.048-.024 0-.048-.025-.072-.025-.025 0-.049-.024-.073-.024l-.145-.073-.025.17-.048.436v.073l.073.024c.096-.024.145 0 .218.025a.449.449 0 00.17.048c.048.024.12.024.193.048a.522.522 0 00.194.025h.049v.485h.581v-.51h.025c.072-.024.145-.048.218-.096.073-.025.121-.073.194-.122.048-.048.097-.097.145-.17.049-.048.073-.12.121-.193l.073-.218c.024-.073.024-.146.024-.243 0-.073 0-.121-.024-.194zM19.66 7.515c-.122-.17-.389-.194-.558-.073l-3.927 3.127-5.067-2.109a.387.387 0 00-.363.049l-5.43 3.878a.387.387 0 00-.097.533c.073.122.194.17.315.17a.39.39 0 00.218-.073l5.26-3.757 5.091 2.109c.121.049.29.024.388-.048l4.097-3.249c.17-.12.193-.388.072-.557z" fill="#029E7E"/><path d="M25.331 20.798h-1.793V9.575a.383.383 0 00-.388-.388h-3.564a.383.383 0 00-.387.388v11.223h-1.31v-7.345a.383.383 0 00-.387-.388h-3.588a.383.383 0 00-.388.388v7.345h-1.309v-7.927a.383.383 0 00-.388-.388H8.266a.383.383 0 00-.388.388v7.927H6.57V15.15a.383.383 0 00-.388-.388H2.594a.383.383 0 00-.388.388v5.648H.388a.383.383 0 00-.388.388c0 .218.17.388.388.388h24.919c.218 0 .388-.17.388-.388.024-.218-.146-.388-.364-.388zm-19.562 0H2.982v-5.26h2.787v5.26zm5.672 0H8.654v-7.539h2.787v7.539zm5.649 0h-2.788v-6.957h2.788v6.957zm5.672 0h-2.788V9.962h2.788v10.836z" fill="#029E7E"/></svg>