<svg width="27" height="27" fill="none" xmlns="http://www.w3.org/2000/svg"><path d="M26.555 11.466l-1.629-.705c-.065-.285-.14-.569-.227-.849l1.058-1.425a.393.393 0 00.025-.43l-1.57-2.719a.392.392 0 00-.385-.193l-1.766.205a11.926 11.926 0 00-.62-.62l.206-1.765a.392.392 0 00-.194-.385l-2.719-1.57a.392.392 0 00-.43.025l-1.425 1.057c-.28-.086-.564-.162-.848-.227L15.326.237a.392.392 0 00-.36-.237h-3.14a.392.392 0 00-.36.237l-.705 1.628c-.285.065-.569.141-.849.227L8.487 1.035a.392.392 0 00-.43-.025L5.338 2.58a.392.392 0 00-.193.385L5.35 4.73a11.33 11.33 0 00-.62.62l-1.765-.205a.392.392 0 00-.385.193l-1.57 2.72a.392.392 0 00.025.43l1.057 1.424c-.086.28-.162.564-.227.849l-1.628.705a.392.392 0 00-.237.36v3.14c0 .156.093.298.237.36l1.628.705c.065.284.141.568.227.848l-1.057 1.425a.393.393 0 00-.025.43l1.57 2.72c.078.135.23.21.385.193l1.765-.205c.198.213.406.421.62.62l-.205 1.765a.392.392 0 00.193.385l2.72 1.57a.392.392 0 00.43-.025l1.424-1.058c.28.086.564.162.849.227l.705 1.629a.392.392 0 00.36.236h3.14a.392.392 0 00.36-.236l.705-1.629c.284-.065.568-.14.848-.227l1.425 1.058a.392.392 0 00.43.025l2.719-1.57a.392.392 0 00.194-.385l-.205-1.766c.213-.198.42-.405.62-.62l1.765.206a.393.393 0 00.385-.194l1.57-2.719a.393.393 0 00-.025-.43l-1.058-1.425c.086-.28.162-.564.227-.848l1.629-.705a.392.392 0 00.236-.36v-3.14a.392.392 0 00-.236-.36zm-.549 3.242l-1.576.682a.392.392 0 00-.228.28c-.082.389-.186.78-.31 1.16a.393.393 0 00.057.356l1.024 1.379-1.312 2.272-1.709-.198a.393.393 0 00-.337.128c-.266.296-.552.582-.848.848a.393.393 0 00-.128.338l.198 1.708-2.272 1.312-1.38-1.024a.392.392 0 00-.355-.058c-.381.125-.771.23-1.16.31a.392.392 0 00-.28.229l-.682 1.576h-2.624L11.4 24.43a.393.393 0 00-.28-.228 11.052 11.052 0 01-1.16-.31.393.393 0 00-.355.057l-1.38 1.024-2.272-1.312.198-1.709a.392.392 0 00-.127-.337 11.172 11.172 0 01-.849-.848.393.393 0 00-.337-.128l-1.709.198-1.312-2.272 1.024-1.38a.392.392 0 00.058-.355c-.125-.38-.229-.771-.31-1.16a.392.392 0 00-.229-.28l-1.576-.682v-2.624L2.36 11.4a.393.393 0 00.229-.28c.081-.388.185-.779.31-1.16a.392.392 0 00-.058-.355l-1.024-1.38 1.313-2.27 1.709.198a.393.393 0 00.337-.127c.267-.297.552-.583.849-.849a.392.392 0 00.127-.337l-.198-1.71 2.273-1.312 1.379 1.024a.392.392 0 00.356.058c.38-.125.77-.229 1.16-.31a.392.392 0 00.28-.229l.682-1.576h2.624l.682 1.576c.05.117.155.202.28.229.389.081.78.185 1.16.31.12.04.254.018.356-.058l1.379-1.024 2.272 1.312-.198 1.709a.393.393 0 00.128.337c.297.267.582.552.848.849.085.094.21.142.338.127l1.708-.198 1.312 2.273-1.024 1.379a.392.392 0 00-.058.356c.125.38.23.77.31 1.16a.397.397 0 00.23.28l1.575.682v2.624z" fill="#029E7E"/><path d="M13.396 3.14c-2.438 0-4.8.87-6.652 2.45a.392.392 0 00.509.597 9.473 9.473 0 016.143-2.262c5.222 0 9.47 4.248 9.47 9.47 0 5.223-4.248 9.472-9.47 9.472-5.223 0-9.472-4.249-9.472-9.471 0-2.25.804-4.432 2.263-6.143a.392.392 0 10-.597-.51 10.258 10.258 0 00-2.45 6.653c0 5.655 4.6 10.256 10.255 10.256 5.656 0 10.257-4.601 10.257-10.256 0-5.656-4.601-10.256-10.257-10.256z" fill="#029E7E"/><path d="M13.396 22.082c4.79 0 8.686-3.897 8.686-8.686 0-4.79-3.897-8.687-8.687-8.687-4.79 0-8.686 3.897-8.686 8.687 0 4.79 3.897 8.686 8.687 8.686zm-.393-13.056a.393.393 0 11.786.001.393.393 0 01-.786 0zm.393-3.532c4.356 0 7.9 3.545 7.9 7.902 0 3.391-2.147 6.29-5.153 7.408v-2.536l1.454-1.455a.393.393 0 00.115-.278v-2.03a1.179 1.179 0 00-.392-2.287 1.179 1.179 0 00-.392 2.288v1.867l-1.455 1.455a.392.392 0 00-.115.277v2.945a7.87 7.87 0 01-1.57.237v-11.15a1.179 1.179 0 00-.393-2.287 1.179 1.179 0 00-.392 2.286v11.151a7.863 7.863 0 01-1.57-.237v-2.945a.392.392 0 00-.115-.277l-1.455-1.455v-1.868a1.179 1.179 0 00-.392-2.287 1.179 1.179 0 00-.392 2.287v2.03c0 .104.04.204.114.278l1.455 1.455v2.536c-3.006-1.118-5.154-4.017-5.154-7.408 0-4.357 3.545-7.902 7.902-7.902zm3.532 7.902a.393.393 0 11.785 0 .393.393 0 01-.785 0zm-7.85 0a.393.393 0 11.786 0 .393.393 0 01-.785 0z" fill="#029E7E"/></svg>