<svg width="27" height="27" fill="none" xmlns="http://www.w3.org/2000/svg"><path d="M20.285 24.28a.523.523 0 00-.715-.19l-.02.012a.523.523 0 00.525.905l.02-.011a.523.523 0 00.19-.715z" fill="#029E7E"/><path d="M24.996 6.702a13.305 13.305 0 00-8.132-6.24A13.305 13.305 0 006.702 1.8a13.305 13.305 0 00-6.24 8.132A13.305 13.305 0 001.8 20.094a13.39 13.39 0 0011.607 6.697 13.33 13.33 0 004.782-.885.523.523 0 10-.376-.976A12.266 12.266 0 016.01 23.307l.469-2.447.226-.073a1.63 1.63 0 001.045-2.051l-.166-.51a.578.578 0 010-.361A1.629 1.629 0 006.35 15.76l-1.18-.23-2.28-1.733a.523.523 0 00-.478-.082l-1.334.434a12.335 12.335 0 01-.002-1.429c.053.05.087.082.108.104a.525.525 0 00.097.118c.109.1.207.144.414.144.19 0 .473-.038.938-.106.442-.066.88-.14.885-.14a.523.523 0 00.346-.81l-.642-.942.92-.657a.524.524 0 00.149-.165l1.424-2.487.575-.615a2.21 2.21 0 00.426-2.344 2.407 2.407 0 00-.953-1.123c.457-.36.945-.692 1.463-.99a12.269 12.269 0 016.03-1.65l-.934 1.171-3.465 1.215a.523.523 0 00-.31.294l-.968 2.346a.523.523 0 00.057.503l1.414 1.98c-.203.185-.4.454-.635.787-.103.147-.2.285-.268.363l-.175.199c-.304.342-.619.695-.842 1.168-.49 1.039-.392 2.246.259 3.152.629.875 1.666 1.32 2.773 1.19.18-.022.348-.063.511-.104.449-.11.59-.122.735.013.07.066.076.078.075.3-.001.142-.002.318.046.519.078.322.28.544.443.722.08.089.164.18.19.242.162.391.091.608-.064 1.083-.014.04-.027.082-.04.124-.238.732.092 1.459.383 2.1.095.208.184.404.242.578.47 1.396.824 1.716 1.107 1.844.148.068.301.097.456.097.755 0 1.542-.7 1.903-1.144.227-.279.283-.558.324-.762a.843.843 0 01.067-.234c.047-.08.102-.142.172-.22.14-.159.315-.355.428-.711.086-.271.148-.337.355-.558l.115-.123c.697-.759.518-1.338.328-1.952-.16-.516.12-.846.796-1.476.293-.273.596-.555.83-.895.103-.148.415-.6.222-1.048-.189-.438-.67-.512-1.057-.572-.152-.023-.383-.058-.456-.106-.324-.212-.522-.654-.714-1.081-.038-.085-.075-.169-.114-.25a8.456 8.456 0 01-.207-.508c-.19-.493-.407-1.051-.774-1.44-.33-.35-.952-.519-1.501-.667a6.448 6.448 0 01-.474-.14.523.523 0 00-.301-.019c-.267.063-.434.132-.558.231a.65.65 0 00-.186.251 5.978 5.978 0 01-.627-.382.742.742 0 00-.047-.504c-.292-.618-1.262-.57-1.454-.554-.109.01-.246.014-.392.02a9.625 9.625 0 00-.73.045l.012-.036c.19-.529.695-.884 1.256-.884h.298a.523.523 0 000-1.046h-.298c-.834 0-1.597.438-2.025 1.13l-.78-1.094.767-1.861 3.386-1.187a.523.523 0 00.236-.168L14.55 1.11c3.846.366 7.466 2.522 9.54 6.115a12.21 12.21 0 011.233 2.995l-.222.198a1.398 1.398 0 00-.466 1.03l-.361-.995a1.307 1.307 0 00-.236-.404l-.644-.755a1.311 1.311 0 00-.999-.46h-.789a.757.757 0 00-.63 1.178l.08.12a5.8 5.8 0 01-1.728 1.026l-1.082-2.072v-.462a.523.523 0 00-.162-.378l-.974-.93a.524.524 0 00-.187-.115l-.877-.308a.523.523 0 10-.347.987l.77.27.731.698v.367c0 .084.02.167.06.242l1.353 2.594c.122.233.399.34.645.248l.395-.145a6.849 6.849 0 002.455-1.571.523.523 0 00.065-.66l-.028-.042h.25c.078 0 .152.034.203.093l.645.755a.28.28 0 01.048.082l.71 1.956a.523.523 0 00.862.191l.34-.338c.214-.215.361-.486.432-.787.523 4.197-1.122 8.538-4.6 11.268a.523.523 0 10.645.823 13.385 13.385 0 004.858-7.938c.628-3.178.08-6.475-1.542-9.284zM2.474 14.795l2.158 1.64a.524.524 0 00.216.098l1.3.254a.57.57 0 01.39.276.574.574 0 01.051.476c-.108.33-.108.68-.001 1.01l.166.51a.582.582 0 01-.374.733l-.52.169a.523.523 0 00-.352.399l-.418 2.184a12.485 12.485 0 01-2.384-2.973 12.28 12.28 0 01-1.52-4.357l1.288-.419zm3.05-8.345l-.616.66a.526.526 0 00-.071.096l-1.398 2.44-1.243.889a.523.523 0 00-.128.72l.465.682c-.268.04-.508.072-.668.09-.03-.03-.063-.06-.096-.09-.124-.116-.297-.27-.555-.496A12.368 12.368 0 014.9 4.442c.381.12.695.405.848.776.172.418.084.901-.224 1.232zM9.79 9.309c.233-.131.775-.15 1.17-.165.159-.005.309-.01.442-.022.07-.006.15-.005.223.001a.521.521 0 00.241.651c.098.053.235.144.38.24.408.273.872.582 1.307.61a.87.87 0 00.711-.296l.022-.023a.559.559 0 00.14-.171l.262.072c.31.084.886.24 1.014.375.226.24.403.697.558 1.1.079.203.153.395.237.573l.106.235c.242.539.515 1.15 1.096 1.529.263.172.586.221.87.265l.115.018c-.17.236-.41.46-.664.697-.648.603-1.454 1.354-1.083 2.551.175.566.184.627-.098.934a12.8 12.8 0 01-.108.115c-.241.257-.432.46-.59.957-.045.144-.105.211-.213.333a2.333 2.333 0 00-.293.387 1.696 1.696 0 00-.189.556c-.03.155-.048.232-.11.307-.137.17-.395.416-.66.584-.246.156-.39.178-.438.175-.056-.06-.258-.322-.564-1.23a7.41 7.41 0 00-.28-.676c-.224-.49-.454-.998-.342-1.345l.04-.12c.178-.546.347-1.061.034-1.812-.095-.228-.247-.395-.38-.542-.087-.096-.186-.204-.2-.266a1.13 1.13 0 01-.018-.265c.002-.273.005-.686-.406-1.07-.58-.543-1.254-.376-1.701-.265a3.365 3.365 0 01-.382.08c-.735.085-1.391-.192-1.801-.762-.429-.597-.49-1.4-.162-2.095.159-.336.399-.606.677-.92l.183-.207c.102-.118.215-.277.334-.446.141-.201.405-.576.52-.647z" fill="#029E7E"/><path d="M21.455 18.015l-.252-.949a.523.523 0 00-.965-.115 5.626 5.626 0 00-.16.326c-.083.182-.17.37-.26.474-.051.059-.181.122-.308.182-.3.146-.713.345-.87.847a1.532 1.532 0 00-.036.738c.024.157.029.21-.013.309l-.005.012c-.167.39-.477 1.119-.042 1.737.31.441.636.555.89.555a.85.85 0 00.139-.011c.534-.088.935-.643 1.263-1.748l.615-2.074a.524.524 0 00.004-.283zm-1.623 2.06c-.167.563-.315.826-.4.943a.953.953 0 01-.032-.043c-.1-.143.05-.494.149-.726l.005-.012c.16-.374.117-.662.086-.872-.02-.134-.027-.192-.003-.271.021-.066.144-.129.328-.218.082-.04.172-.083.263-.136l-.396 1.335zM14.13 6.22l-.036-.013a.523.523 0 00-.346.988l.035.012a.522.522 0 10.347-.987z" fill="#029E7E"/></svg>