<svg width="858" height="448" fill="none" xmlns="http://www.w3.org/2000/svg"><path d="M235.341 257.787C280.87 104.004 436.095 69.85 436.095 69.85s74.065 49.104 82.896 118.883M436.098 69.85s-39.965 24.938-58.152 83.865m262.309-39.951c118.443 46.058 121.139 152.117 121.139 152.117" stroke="#3DAB72" stroke-width=".212" stroke-miterlimit="10"/><path fill-rule="evenodd" clip-rule="evenodd" d="M278.622 0c-.362.699-.745.824-1.95 1.104-4.014.933-8.536.615-11.501 4.218-.261.318-.912.327-1.361.524-2.921 1.279-6.117.957-9.176 1.415-4.189.627-8.477.753-12.597 1.635-1.485.318-2.621 2.185-3.867 3.392-.156.15-.135.67.016.875 1.166 1.582 2.122 3.357 4.515 3.645 2.152.257 4.216.15 6.333 1.553 3.247 2.153 7.077 2.516 10.573-.122.337-.254.743-.476 1.152-.573.521-.124 1.207-1.2 1.597.315.116.448 1.818.707 2.071-.27.859-3.32 3.705-4.03 6.483-4.527 7.615-1.365 15.166-2.992 22.711-4.654 2.592-.572 5.2-1.079 8.031-1.662-.722 1.155-.718 1.419-.295 3.1.037.148-.167.431-.338.534-1.713 1.045-3.271 2.321-5.533 2.294-3.379-.039-6.748-.986-10.147-.062-.795.216-1.901-.109-2.098.982-.215 1.187 1.085 1.325 1.774 1.855.32.247.806.452 1.202.43 2.925-.169 5.634 1.028 8.515 1.171 1.566.078 2.914.633 3.907 2.026.674.947 1.665 1.727 2.691 2.451 2.139 1.513 4.332 3.164 5.011 5.76.553 2.118 1.214 4.183 1.916 6.255.719 2.12 1.097 4.314-.617 6.289-1.996 2.297-4.66 1.679-7.176 1.472-.996-.081-2.108-.583-2.84.173-.74.763-.18 1.799.079 2.724.526 1.883 1.349 3.651 1.635 5.649.258 1.805.437 3.75 1.433 5.439 2.405 4.077 5.088 7.822 9.874 9.788 1.339.549 2.289.559 3.222-.235 3.052-2.598 5.642-5.6 7.302-9.171 1.579-3.398 3.994-5.66 7.806-6.526 2.65-.602 5.332-1.117 7.918-1.91 1.599-.491 3.897-.689 4.221-2.52.273-1.546 1.207-1.7 2.223-2.15 3.546-1.566 7.419-1.861 11.183-2.464 4.102-.659 8.059-2.287 12.327-1.906 3.786.337 8.088-3.765 6.764-8.15-.763-2.524.361-4.537 1.351-6.625.314-.661 1.136-1.06 1.919-.856 3.417.898 6.52-.063 9.529-1.432 2.207-1.004 3.045-2.584 2.493-4.75-.216-.847-.039-1.526.473-2.029 1.137-1.116 2.225-2.271 3.564-3.22 2.186-1.549 4.866-2.153 7.314-3.585-1.123-.764-2.792-.75-2.816-2.237-.022-1.343-.806-1.482-1.853-1.415-2.055.13-3.985-.038-5.687-1.378-.798-.63-1.887-.72-2.853-.223-2.811 1.446-5.921 1.425-8.947 1.552-2.3.097-4.605.077-6.911.057-1.955-.016-3.909-.033-5.862.02-1.088.031-2.175-.09-3.255-.21-1.444-.16-2.878-.32-4.29-.122-4.498.634-8.942.15-13.398-.113-1.756-.103-3.755.026-5.181-1.149-1.637-1.347-3.262-1.076-5.084-.671-4.27.949-8.564 1.692-12.997 1.53-2.274-.085-4.552-.066-6.83-.049-1.223.01-2.446.02-3.669.014-.682-.003-1.354-.12-2.035-.236-3.689-.627-7.342-1.497-11.166-1.248-3.394.22-6.66-1.034-10.05-1.116-.185-.004-.863-.157-.346-.675h-8.402zm-54.228 448h6.874c-.565-.262.212-.674-.171-1.05-2.5-2.464-2.507-5.316-.556-7.89 2.504-3.3 1.874-6.796 1.45-10.346-.075-.622-.401-1.286-1.357-1.151-.314.044-.63.034-.947.025-.497-.015-.996-.03-1.493.16-1.291.494-1.774-.289-1.439-1.247.426-1.215.741-2.472 1.498-3.619.826-1.251 2.288-2.005 2.671-3.621.7-2.964-.399-5.148-2.796-6.894-.487-.355-.852-.87-.882-1.327-.047-.688-.089-1.567.609-2.004.234-.146.955-.658 1.296-.049.806 1.437 1.983 1.26 3.155 1.082.549-.084 1.098-.167 1.608-.083.576.095 1.154-.611 1.131-1.259-.057-1.679.318-3.365-.231-5.043-.479-1.472.487-2.869 1.892-2.654.854.13 1.796.421 2.518 1.078.9.82 1.874.815 2.824.004 2.746-2.348 5.095-5.007 6.942-8.06.634-1.047.054-1.725-.858-2.213-.975-.522-2.05-.89-2.977-1.475-1.99-1.258-4.511-2.208-3.878-5.337.448.218.918.374 1.299.642 1.58 1.115 3.384 1.516 5.28 1.89 1.88.372 3.449.521 5.074-.785 1.007-.81 2.313-1.529 2.693-2.624.902-2.605 3.063-4.171 4.706-6.181.789-.962 3.086-1.737 1.525-3.709 1.167-1.81.649-4.103 1.827-5.898 1.052-1.604 2.444-2.991 3.149-4.817.847-2.197 2.12-4.354.709-6.726-1.379-2.318-1.059-3.156 1.713-4.664 1.909-1.039 4.178-1.054 6.199-1.7 3.542-1.131 7.256-1.742 10.594-3.633 1.429-.81 2.11-1.455 2.614-2.904 1.467-4.221 4.225-7.987 4.378-12.686.088-2.714 1.067-5.4 1.178-8.114.146-3.558.714-6.976 1.961-10.322 1.187-3.182.857-6.867 4.139-9.358 1.25-.948 2.145-2.563 3.198-3.878 2.575-3.213 3.923-6.825 2.976-10.957-.13-.568-.615-.778-1.103-.856-2.063-.331-3.057-2.26-5.068-2.894-1.821-.573-3.961-1.343-4.937-3.382-.137-.287-.746-.462-1.161-.518-2.766-.369-5.183-1.57-7.607-2.779-.421-.21-.811-.595-1.371-.468-2.43.551-4.823.446-7.182-.358-.426-.144-.972-.234-1.274.069-1.187 1.191-1.962.433-2.83-.397-.795-.76-1.691-1.421-2.531-2.138-2.36-2.013-4.762-3.902-8.285-3.112-.262.059-.696-.042-.865-.225-1.4-1.515-2.091-1.574-4.008-1.382-2.184.218-4.233.872-6.351 1.29-.13.331-.354.408-.672.225l.385-.499c1.508-.708 2.372-2.08 3.233-3.298 1.535-2.173 2.658-4.557.127-6.915-.29-.269-.442-.726-.54-1.122-1.031-4.168-4.462-6.243-7.919-8.278-.342-.201-.721-.667-1.305-.233-.947.704-1.987.312-3.045.198-1.775-.191-2.523-1.974-4.102-2.273-1.133-.215-1.582-.942-2.283-1.627-2.73-2.672-4.952-6.22-9.094-6.931-4.035-.691-6.837-3.098-9.948-5.176-.479-.32-.682-.498-.362-1.031.907-1.511-.033-1.745-1.345-1.741a886.69 886.69 0 01-4.315.001 647.325 647.325 0 00-6.386.013c-1.336.011-2.789.615-3.56-1.143-.154-.352-.944-.494-1.468-.645-2.076-.6-4.162-1.08-5.804-2.653-.833-.798-1.398-.231-1.597.804-.492 2.566-2.102 4.764-2.709 7.31-.182.767-1.091 1.118-1.804.988-.876-.159-.399-1.016-.391-1.535.008-.563.279-1.118.382-1.704.377-2.163-1.599-3.253-2.313-4.906-.422-.976-.622-2.47-1.99-2.47-.074 0-.151.004-.233.013-1.394.157-1.557 1.718-1.949 2.765-.403 1.076-.847 1.678-2.146 1.831-1.729.202-3.17.901-4.285 2.425a26.916 26.916 0 01-6.45 6.253c-.472.327-1.066.715-.92 1.465.489 2.502-.136 5.331 2.435 7.214.958.701.741 1.434.014 2.313-.79.954-1.955 1.781-2.035 3.113-.072 1.186-.576 2.167-1.214 3.102-.956 1.398-2.032 2.72-2.976 4.125-2.009 2.992-3.507 6.315-6.043 8.962-2.653 2.769-2.784 4.517-.239 7.285 1.274 1.387 1.238 2.467-.174 3.694-.457.398-.997.71-1.496 1.064-1.073.76-1.715 4.158-.912 5.155a92.325 92.325 0 003.418 4.013c3.599 3.984 6.372 8.475 8.381 13.331 1.351 3.266 3.063 6.337 4.636 9.486.291.582.742 1.009 1.232 1.347 4.553 3.144 8.395 7.101 12.948 10.245 2.688 1.856 5.138 4.148 8.763 4.134a1 1 0 011.062 1.017c-.067 1.459.93 2.247 1.978 2.816 1.357.734 1.384 1.84 1.057 2.889-.866 2.784-1.266 5.546-1.101 8.484.319 5.686.345 11.388.413 17.084.016 1.408.861 2.582.827 4.019-.095 4.09.14 8.157.635 12.246.723 5.963.831 11.992 1.245 17.99.202 2.928.451 5.856.793 8.774.091.783.58 1.557 1.351 2.005 2.526 1.466 3.467 4.03 4.673 6.345 1.085 2.083.749 4.804 3.131 6.327.419.269.497.715.222 1.126-.723 1.083-.846 2.398-1.727 3.459-1.817 2.187-1.817 3.181-.164 5.447 1.499 2.054 2.628 4.3 3.953 6.443 1.826 2.954 3.636 5.995 6.644 8.035 1.393.945 3.087 1.474 4.562 2.324.343.199 1.406.059.994 1.023zM579.666 19.203c-1.453.186-3.004.976-4.564.162-1.742-.908-3.154-.307-4.29 1.048-1.353 1.615-3.109 2.665-4.977 3.66-3.268 1.741-6.874 1.461-10.371 1.799-1.803.174-3.672-.145-5.416.495-2.282.84-4.591 1.404-7.068 1.387-1.59-.01-2.193.999-1.815 2.54A25.438 25.438 0 00543 35.306c.844 1.74.392 3.343-1.147 4.53-1.212.933-2.287.806-3.179-.386-1.448-1.932-2.78-3.925-3.896-6.065-.621-1.193-1.196-2.529-2.656-3.515.183.963.145 1.651.298 2.382.735 3.51 2.762 6.457 4.331 9.602.361.725.692 1.492.206 2.212-.494.734-4.168 1.343-5.131.947-1.714-.706-2.292-2.137-1.875-3.656 1.072-3.92-.642-7.029-3.111-9.757-1.344-1.486-3.21-2.716-5.524-2.78-1.002-.027-1.976-.043-2.983-.3-.882-.224-2.268-.366-2.483.852-.2 1.135-.095 2.353.134 3.57.326 1.73 2.181 2.107 2.79 3.43.937 2.037 2.155 3.688 4.81 3.983-1.129 1.444-2.304 2.417-3.932 2.695-6.065 1.035-11.434-.372-15.919-4.432-1.115-1.008-2.037-1.278-3.497-.745-2.046.748-3.735 1.908-5.269 3.339-.575.537-1.273 1.325-2.007.909-1.353-.768-2.49-.387-3.709.11-1.329.54-2.501.535-3.855-.262-2.241-1.32-4.767-1.25-6.913.134-1.222.788-2.433 1.28-3.8 1.717-4.884 1.57-9.941 2.77-13.914 6.285-2.188 1.937-4.671 3.57-7.042 5.315-.945.694-2.132 1.121-2.952.073-2.018-2.577-4.865-4.146-7.476-6.014-.655-.469-1.464-1.084-1.331-1.845.102-.589 1.075-.544 1.752-.611.472-.048.91-.349 1.376-.497 2.013-.64 3.913-.921 5.824.505 1.479 1.104 3.268 1.165 4.936.17 1.216-.726 1.846-1.99 2.052-3.184.198-1.148-1.225-1.452-2.129-1.907-2.32-1.17-4.981-1.163-7.441-1.902-1.563-.47-2.617-1.71-4.275-1.93-2.64-.35-5.239-1.01-7.883-1.3-3.765-.415-7.371-1.743-11.233-1.623a36.817 36.817 0 01-5.659-.239c-2.29-.28-4.683-.332-7.01.088-3.569.644-6.067 3.16-8.892 4.976-5.372 3.454-10.537 7.239-15.514 11.2-1.91 1.52-4.812 2.821-4.247 6.093.075.434-.335.614-.586.874-1.657 1.72-4.71 2.32-7.089 1.322-.389-.164-.48.105-.55.205-.343.486-.728.983-.904 1.533-.951 2.974-.889 6.005-.365 9.034.071.399.269.915.864 1.059.834.202.617-.594.923-.885.247-.233.349-.623.469-.958.571-1.599 1.554-1.716 3.003-.93a377.717 377.717 0 009.462 4.929c1.182.598 1.709 1.381 1.691 2.711-.04 2.872 3.904 5.158 6.687 3.919 1.63-.726 3.132-1.651 4.469-2.834.943-.835 2.242-1.344 2.548-2.71.473-2.114 1.738-3.803 3.211-5.353.597-.63.715-1.064-.028-1.614-1.981-1.463-2.389-3.317-1.665-5.575.492-1.534.838-3.127 1.148-4.708.264-1.354 2.589-1.97 4.078-2.781 2.128-1.16 4.09-2.638 6.668-2.964 1.071-.135 1.597.194 2.245.898.8.87.181 1.487-.224 2.085-1.077 1.59-2.304 3.087-3.358 4.69-.412.625-1.051 1.21-.983 2.068.158 1.993 3.261 4.628 5.289 4.117 2.625-.662 5.318-.437 7.94-.954 1.058-.208 1.878.474 2.421 1.369.369.608.539 1.102-.075 1.762-1.99 2.135-5.657 2.715-8.109 1.2-.602-.37-1.31-1.153-1.942-.58-.466.423-.249 1.343.011 2.065.504 1.402 1.046 2.803.956 4.333-.101 1.744-1.415 2.59-3.097 1.97-3.52-1.3-3.52-1.3-3.781 2.214-.243 3.259-3.199 5.319-6.638 4.983-2.791-.272-5.683-.427-8.008 1.69-1.464 1.337-3.238 1.19-4.306-.422-.376-.567-.926-.709-1.362-.797-2.486-.5-4.982-1.283-7.402.437-.678.483-1.732.605-2.711.51-.72-.07-1.312-.224-1.253-1.021.13-1.763-.922-1.23-1.7-.74-1.022.643-2.007 1.305-2.739 2.374-.555.812-1.204 1.934-2.569 1.919-1.653-.02-3.131.62-4.686 1.008-1.584.395-2.128 1.184-2.096 2.668.032 1.574-.895 2.732-3.019 2.318-.761-.149-1.241.167-1.623.532-1.158 1.107-2.441 2.093-3.394 3.408-.551.759-1.165 1.478-2.255 1.8-3.475 1.026-6.93 2.113-10.636 1.749-1.267-.125-2.37.397-2.61 1.339-.262 1.03 1.212 1.135 1.942 1.539 1.187.655 2.595.959 3.812 2.248-2.258 0-4.148-.002-6.036.001-.1 0-.202-.003-.306-.008-.544-.021-1.116-.042-1.337.561-.236.645.484.953.882 1.264 1.159.903 2.348 1.789 3.614 2.546 1.59.952 1.585 3.111 3.355 3.892.05.022.07.27.009.338-1.057 1.204-.455 2.679-.762 3.989-.216.919-.328 2.222-2.013 2.044-.612-.066-1.136.406-1.645.764-1.288.909-2.657.907-4.062.248-1.45-.681-2.804-1.646-4.427-1.863-2.662-.356-5.364-2.001-7.996.225-1.872 1.581-2.935 3.579-2.637 5.854.374 2.839.44 5.502-.606 8.271-1.527 4.044.8 7.308 5.293 8.012 2.612.41 5.328.391 7.706 1.833 1.183.717 2.74.683 3.73-.139 2.208-1.834 4.958-2.733 7.308-4.276 1.611-1.058 3.617-2.024 3.193-4.422-.394-2.232 1.318-5.395 3.511-6.115 2.471-.809 4.548-2.026 5.679-4.403.231-.484.563-.93.893-1.364 1.678-2.198 3.03-2.579 5.827-2.017 1.52.306 3.069.552 4.667.489 1.252-.05 1.723-.473 1.622-1.645-.069-.785-.105-1.597.04-2.364.088-.459.211-1.533 1.2-.501.615.643 1.54 1.146 2.364.781 1.916-.849 2.565.494 3.089 1.611 1.024 2.187 2.713 3.525 4.891 4.602 1.812.895 3.844 1.099 5.61 2.253 2.901 1.894 4.978 4.555 7.611 6.673.52.418.492.883.087 1.429-1.81 2.436-3.774 4.571-7.374 3.947-.074-.012-.177.122-.377.27.856 1.277 2.146 1.899 3.62 2.225.392.088.808.107 1.19-.305a241.234 241.234 0 015.239-5.421c.424-.43.269-.908.284-1.37.089-2.657.078-2.649 2.441-1.741.735.281 1.341.079 1.845-.517.284-.336.429-.68.01-.915-3.088-1.729-4.473-5.296-8.363-6.35-3.973-1.079-6.223-4.659-8.921-7.429-.779-.797-1.798-2.437-.846-3.538.91-1.051 2.24.046 3.288.546 4.406 2.103 8.044 5.203 11.699 8.278.494.416.816.924 1.689.944 3.521.083 4.241.946 4.45 4.357.118 1.937.4 3.926 2.197 5.265 1.338.997 2.092 2.379 2.716 3.813.803 1.847 2.184 3.305 3.407 4.865.941 1.203 2.387.672 3.547.538 1.1-.128.719-1.284.678-2.004-.063-1.132.233-1.792 1.539-1.967.552-.074 1.339-.293 1.477-.948.147-.705-.727-.691-1.098-1.046-.932-.89-1.869-1.761-2.638-2.815-.873-1.199-.328-2.309.276-3.144.63-.873 1.355.126 1.991.504 1.47.872 2.926.469 4.156-.357 1.022-.688 2.101-1.185 3.222-1.654 1.36-.571 2.059-.198 1.751 1.147-.427 1.861-.073 3.664-.06 5.496.019 2.56.349 4.405 2.946 5.936 2.392 1.411 4.638 2.762 7.492 2.751 2.327-.009 4.693-.26 6.972-.211 3.396.074 6.798.34 10.207.227.759-.026 1.21.154 1.626.891.613 1.083.849 2.202.606 3.309-.72 3.293-1.618 6.501-3.306 9.546-1.915 3.455-4.55 4.929-8.637 4.93-1.939 0-3.853-.268-5.766-.536-2.843-.398-5.685-.796-8.607-.316-2.604.428-5.079-.592-7.629-1.217-2.805-.689-5.512-1.107-8.114-2.589-1.724-.982-3.754-1.417-4.899-3.206-.014-.023-.202.053-.343.093.043 2.62-.711 4.81-2.386 7.095-1.184 1.616-1.846 1.729-3.695 1.891-2.243.196-4.16-.04-5.783-1.201-2.877-2.061-6.103-3.411-9.295-4.873-.69-.316-1.34-.454-1.981-.204-2.082.808-3.457.348-4.438-1.69-.514-1.065-1.396-2.149-2.947-2.065-1.768.098-2.269-.975-2.31-2.344-.075-2.526.114-5.081 2.016-7.016 1.424-1.45-.143-2.127-.611-3.009-.399-.749-1.239-.331-1.991-.146-2.626.648-5.178 1.92-7.771 2.157-4.489.412-9.018.605-13.474 1.287-2.255.346-4.758.201-6.65 1.81-1.476 1.254-2.962 1.764-4.902.843-.725-.344-1.872-.394-2.601-.088-1.14.479-2.203.192-3.053-.175-.953-.414-1.635-.074-2.293.211-4.011 1.736-3.997 1.765-7.048-1.174-.282.332-.584.644-.836.989-2.426 3.318-5.049 6.435-8.925 8.348-.899.444-2.175.548-2.441 1.693-.267 1.151-1.018 2.003-1.647 2.922-.736 1.078-1.003 2.078-.556 3.375.342.989.449 2.121-.688 2.953-3.032 2.222-5.96 4.555-8.673 7.144-3.666 3.498-6.966 7.266-9.401 11.636-1.208 2.17-1.747 4.702-3.079 6.783-2.083 3.256-1.082 6.435-.267 9.617.273 1.066.558 2.092.455 3.155-.373 3.848-1.177 7.597-3.21 11.005-.819 1.374-.718 2.66-.038 4.09.734 1.546 1.33 3.139.676 4.964-.369 1.029.016 2.012 1.19 2.725 3.429 2.084 6.385 4.569 7.951 8.368.366.892.933 1.854 1.488 2.747 2.246 3.619 5.058 6.752 8.409 9.478 2.316 1.884 4.868 3.279 7.666 4.453 1.464.615 2.886.528 4.299.442.823-.05 1.643-.1 2.465-.013 1.3.138 2.634-.084 3.57-.809 1.893-1.466 3.84-1.606 6.21-1.481 3.677.191 7.151-1.333 10.581-2.426 3.772-1.2 7.427-1.961 11.441-1.556 3.414.345 5.987 1.519 7.605 4.473.746 1.363 2.169 2.357 3.604 1.962 1.286-.353 2.168-.101 3.354.028 2.465.267 3.563 1.794 4.572 3.336 2.329 3.561 2.252 7.366.731 11.261-2.195 5.626-2.435 5.238 1.588 8.819 2.595 2.31 4.986 4.857 6.064 8.104.763 2.303 1.296 4.708 2.687 6.71 2.209 3.174 3.235 6.449 1.942 10.156-.191.547.131.861.313 1.129 2.531 3.705 1.495 7.286-.262 10.894-1.52 3.124-4.175 5.784-4.495 9.388-.222 2.517-1.299 5.217.579 7.521 4.439 5.442 6.224 12.05 8.989 18.227.095.213.062.476.107.712.704 3.684-.071 7.57 1.556 11.114.576 1.255-.557 2.675.651 3.828 1.07 1.022 2.068 2.123 3.022 3.247 2.728 3.223 4.772 6.702 5.132 10.993.21 2.52.822 5.055 2.622 7.077 1.247 1.402 3.786 2.849 5.809 1.161 1.175-.982 2.38-1.326 3.955-.774.765.268 1.769.079 2.626-.087 2.522-.491 4.827-1.559 7.123-2.629.684-.319 1.361-.632 2.155-.508 1.395.218 2.372-.516 3.24-1.378 1.004-1 1.798-2.233 2.92-3.076 3.149-2.365 5.773-5.237 8.569-7.931 1.248-1.201 3.319-1.494 3.974-3.134.978-2.444 2.695-4.521 3.618-6.961 1.586-4.196 4.706-6.952 8.75-8.914.428-.209.749-.742.633-.984-.823-1.712-.062-3.54-.521-5.327-.259-1.008-1.028-1.571-1.233-2.39-.322-1.284.135-2.58.63-3.82 2.352-5.883 6.858-9.96 12.192-13.364 1.694-1.081 3.853-1.825 4.548-3.822.975-2.796 2.125-5.592 1.693-8.682-.173-1.241-.568-2.456-.431-3.752.247-2.358-.225-4.62-1.102-6.841-1.462-3.7-1.722-7.707-3.283-11.422-.741-1.76-.527-4.007.675-5.743 1.508-2.178 3.215-4.237 4.924-6.278 2.981-3.562 6.283-6.884 8.89-10.723 1.33-1.958 2.413-4.209 4.402-5.538 3.722-2.489 6.282-5.85 8.957-9.236 1.945-2.464 3.273-5.281 5.443-7.629 1.676-1.814 3.264-3.894 3.925-6.355.801-2.981 1.502-5.985 2.232-8.983.226-.928.226-1.56-1.129-.983-.824.351-1.774.43-2.669.624-1.826.396-3.409 1.882-5.46 1.22-1.187-.384-2.389-.362-3.591-.34-.435.007-.872.015-1.307.003-3.533-.092-6.996.477-10.456 1.059-1.49.251-2.577-.055-2.808-1.775-.859-6.373-4.645-11.412-8.963-15.878-3.515-3.634-6.615-7.423-9.403-11.567-1.508-2.242-2.01-4.774-3.263-7.067-1.676-3.07-2.982-6.337-4.273-9.583-1.878-4.718-4.477-9.097-6.795-13.608-.427-.832-1.371-1.419-1.298-2.494l.283-.264c-.174-.125-.348-.25-.522-.373.174.123.348.248.522.373 1.182 1.061 2.409 2.198 4.175 1.3 1.214-.617 1.755.089 2.595.666 1.941 1.332 2.574 3.548 4.116 5.154 2.467 2.569 4.532 5.406 5.849 8.738 1.024 2.593 2.339 5.092 3.66 7.567 2.646 4.956 7.106 8.703 9.974 13.53 1.22 2.054 3.046 3.885 3.283 6.298.184 1.87.628 3.627 1.23 5.372 1.311 3.797 3.858 5.991 6.998 5.555 2.848-.394 5.693-.966 8.222-2.577 3.447-2.197 6.995-4.228 11.02-5.449 2.382-.724 4.711-1.766 6.856-2.998 1.755-1.007 3.296-2.416 4.755-3.814 1.229-1.178 2.817-1.939 3.828-3.378 2.586-3.682 5.145-7.378 8.673-10.373 2.363-2.005 1.906-3.811-.896-5.239-4.809-2.449-8.142-6.018-8.987-11.36-.059-.371.255-.91-.377-1.055-.565-.131-1.052-.044-1.506.448-1.202 1.298-2.583 2.424-3.516 3.97-.63 1.043-1.464 2.146-2.816 2.379-1.788.308-3.413.977-5.048 1.661-1.136.475-2.282.563-3.007-.552-.656-1.009-1.66-1.502-2.646-2.035-.914-.493-1.402-1.133-1.828-2.096-1.826-4.129-2.761-8.563-4.961-12.576-.966-1.759-1.154-3.857.275-5.814.945 2.083 2.241 3.785 4.155 5.009 1.482.948 3.171 1.581 4.469 2.813 4.127 3.917 9.563 3.355 14.685 3.982.276.034.592.021.919.009.899-.035 1.873-.07 2.281.868 1.408 3.249 4.638 4.328 7.532 5.025 3.455.833 7.214 1.18 10.823.815 2.978-.302 5.934-.424 8.802.146 3.054.607 6.179 1.338 8.132 4.172.655.953 1.464 1.941 2.602 2.52 2.854 1.451 4.899 3.6 6.659 6.203 1.693 2.503 3.476 3.11 6.889 1.271 1.044-.563 1.807-1.596 3.075-1.776.423.769-.23 1.681.537 2.297 1.949 1.565 1.806 3.513 1.188 5.593-.648 2.186-.592 4.365.412 6.455 1.029 2.143 2.115 4.26 3.18 6.387 1.629 3.254 3.573 6.382 4.143 10.051.077.492.151 1.176.75 1.582.94.638 1.049 1.734 1.373 2.671 1.078 3.1 1.683 6.292 3.589 9.189 1.105 1.678 1.921 1.349 3.263.988 2.878-.777 4.676-2.932 6.677-4.795.508-.474.895-1.42.578-2.153-.464-1.071-.397-2.154-.29-3.203.256-2.556.033-5.023-.737-7.492-.257-.823-.14-1.837.085-2.698.903-3.456 2.871-6.494 4.389-9.707.845-1.788 2.349-2.976 4.275-3.767 2.597-1.067 5.184-2.26 6.955-4.465 1.825-2.275 4.079-4.138 6.137-6.186 2.277-2.265 4.682-3.164 8.262-2.387 5.725 1.243 9.296 4.021 11.242 9.355.938 2.574 3.078 4.751 6.066 5.783 1.404.487 2.265 1.453 2.183 3.008-.046.85.047 1.706-.021 2.552-.11 1.375.564 2.473 1.709 2.986 1.184.529 1.783-.599 2.454-1.4 1.037-1.243 2.791-1.358 3.417-.176 1.583 2.993 2.895 6.087 3.53 9.43.536 2.823-.147 5.604-.087 8.411.062 2.799.743 5.263 2.631 7.533 1.024-2.768 1.543-5.477 1.069-8.404-.441-2.732-.265-5.505 1.752-7.763 1.222-1.368 1.875-1.201 2.727.431.436.836.516 1.853 1.402 2.466 2.807 1.941 4.267 5.162 7.237 6.952.152.091.344.257.358.402.174 1.926 1.974 2.443 3.21 3.463 1.334 1.099 2.585.879 3.903-.008 3.36-2.262 6.455-4.854 8.749-8.083 1.803-2.538 3.661-5.373 1.428-8.653-.502-.738-1.052-1.448-1.54-2.195-3.426-5.239-6.509-10.733-12.43-13.979-1.292-.707-1.747-2.011-.928-3.4 1.651-2.798 3.633-5.376 5.83-7.806.508-.561 1.174-.5 1.761-.38 4.545.918 7.12 4.485 6.046 8.754-.426 1.692-.137 3.116.299 4.789 1.643-.914 2.307-2.349 3.212-3.611 2.265-3.153 3.627-6.762 6.24-9.825 1.746-2.046 3.547-2.848 5.848-3.423 3.957-.988 7.722-2.126 10.188-5.7 3.358-4.867 6.846-9.601 4.475-15.906-.834-2.214-.997-5.046-2.571-6.518-1.76-1.647-3.409-3.452-5.177-5.106-2.168-2.029-4.214-4.241-5.527-6.965-.523-1.083-.551-1.924.353-2.723 1.595-1.411 2.578-3.14 3.13-5.136.096-.347.38-.75.129-.989-.212-.201-.778-.294-1.051-.167-2.578 1.197-5.306.76-7.976.652-.663-.026-1.315.057-1.968.14-1.051.133-2.104.268-3.206-.055-1.643-.479-2.08-.874-1.112-2.264 1.585-2.279 3.526-4.346 4.966-6.697 1.148-1.875 2.646-3.195 4.547-4.238.74-.405 1.826-.815 1.993.124.391 2.204 1.414 4.102 2.256 6.123.639 1.533 1.274 1.164 2.18.744 1.182-.548 2.177-1.366 3.128-2.236.25-.228.37-.775 1.021-.488 1.541.683 3.341 1.191 3.321 3.198-.036 3.385 2.29 4.657 5.109 5.587.414.137.821.295 1.223.458 1.339.544 2.074 1.496 2.093 2.903.015 1.154-.04 2.311.015 3.464.08 1.656 1.157 2.743 2.701 3.058 1.894.385 3.804.07 5.164-1.466.882-.996 1.672-2.074 2.415-3.169 1.87-2.763 1.725-3.579-.867-5.833-.23-.2-.493-.323-.743-.476a362.956 362.956 0 01-8.08-5.089c-2.104-1.363-2.811-3.632-1.696-5.787.455-.878 1.059-1.731 1.879-2.411 1.104-.916 1.451-2.095.94-3.415-.449-1.159-.043-2.037.993-2.548 1.285-.633 2.832-1.16 4.141-.654.896.346 1.712.18 2.516.015.637-.131 1.267-.262 1.922-.139.537.101.476-.376.555-.732.403-1.826 1.412-3.396 2.329-5.013.886-1.56 1.812-2.883 1.267-5.09-.66-2.668-.731-5.639.352-8.424.74-1.901.281-3.641-1.507-4.775-2.555-1.618-4.049-3.989-5.475-6.447-.746-1.287-1.769-2.337-3.315-2.673-4.267-.93-8.566-1.057-12.903-.417-1.225.181-2.544.278-3.413-.973-.363-.52-.888-.604-1.484-.218-1.105.717-1.273-.068-1.447-.853-.516-2.319-.76-4.65-.381-7.01.412-2.558 1.318-4.866 3.933-6.085 1.017-.475 1.782-1.223 2.346-2.014 2.003-2.813 4.767-2.857 7.751-2.173 3.463.794 6.936 1.374 10.514 1.55 1.924.094 3.921.348 5.727 1.27 2.359 1.207 2.811.96 4.254-1.243.631-.963.695-1.921.581-2.91-.221-1.916.617-3.36 1.941-4.666 2.199-2.168 2.19-2.176 4.405-.172 1.702 1.54 3.589 1.506 5.323.019 1.104-.947 1.858-2.904 3.969-1.506.06.04.238-.05.342-.109.958-.54 1.5.348 1.502.776.006 1.678.909 3.094 1.233 4.662.234 1.131-.009 2.129-1.083 2.868-1.273.877-1.892 2.147-2.231 3.59-.988 4.2 1.623 9.208 5.877 10.553 1.698.536 2.442 1.58 2.401 3.156-.03 1.113.401 2.152 1.178 2.685 3.03 2.076 5.361 4.886 8.334 7.005.543.387.946 1.173 1.742.876.921-.344.556-1.236.603-1.923.18-2.638-.519-5.357.452-7.911.744-1.957.836-3.765-.014-5.688-.428-.97-.564-2.054-.892-3.07-.773-2.4-3.319-4.208-6.013-4.316-1.84-.073-2.55-.81-2.709-2.526-.197-2.13.984-3.405 2.779-4.274 2.135-1.036 4.524-1.593 6.379-3.166.311-.264.76-.689 1.273-.286.47.37.341.904.187 1.344-.47 1.341-.925 2.67-.455 4.416 3.016-1.983 5.349-4.408 7.514-6.842 1.593-1.792 3.261-2.08 5.207-1.584 1.758.447 2.364-.562 2.824-1.631.446-1.036-.281-1.008-.887-.98-.24.01-.46.021-.582-.034-3.916-1.76-7.421-4.213-11.323-5.98-.271-.123-.617-.3-.498-.631.097-.273.413-.39.757-.455 1.636-.306 3.293-.525 3.85-2.481.197-.688 1.12-.474 1.71-.407 1.779.2 2.476-.927 2.34-2.054-.144-1.187-1.214-2.375-2.919-2.011-2.832.601-5.71.638-8.382-.76-2.43-1.27-4.994-1.846-7.767-2.225-6.942-.95-13.823-2.328-20.727-3.54-3.195-.56-3.196-.569-5.016 2.075-.239.348-.527.691-.656 1.077-.293.882-.708.794-1.541.525-4.353-1.401-8.833-2.319-13.379-2.966-4.827-.688-9.682-.662-14.539-.8a23.445 23.445 0 00-.801-.007c-1.446.003-3.037.007-4.135-1.2-1.188-1.306-2.777-1.566-4.361-1.603-3.215-.076-6.43-.054-9.645-.033-5.288.034-10.577.07-15.862-.326-1.493-.111-2.859-.377-3.996-1.255-.902-.696-1.984-.914-2.963-1.377-2.096-.99-4.763-.598-6.471-2.46-1.02-1.112-1.504-.968-1.879.505-.784 3.093-4.063 3.933-6.127 5.878-.167.158-.512.147-.854.134a4.454 4.454 0 00-.432-.001c-2.223.152-4.285-.292-6.406-1.022-1.95-.67-3.993-.63-6.05-.59-1.356.025-2.719.053-4.065-.126-3.915-.516-7.75-.976-10.969-3.352-.922-.68-1.91-.61-2.871-.541-.584.043-1.159.084-1.705-.04-3.988-.917-7.748-.423-11.564.713-5.12 1.525-10.184 1.675-15.017-1.042-.521-.293-1.166-.387-1.757-.564-3.061-.918-6.1-.013-9.128.21-1.52.111-3.04.189-4.537.1-1.124-.067-1.973-.633-.974-1.933 1.206-1.571 2.171-3.382 4.196-4.144.714-.27.622-.827.791-1.256.207-.524-.442-.734-.783-.86-2.818-1.037-5.652-1.495-8.755-1.085-2.152.284-4.777 1.426-6.551-1.104-.097-.139-.473-.137-.718-.137-.464-.002-.928-.002-1.392-.002-4.067 0-8.124.07-12.182.592zm-426.221 5.015c-3.321 1.521-6.318 3.478-8.982 6.483 1.326 0 2.582-.375 3.251.065 2.1 1.38 4.378 1.362 6.741 1.345.728-.006 1.464-.01 2.205.025-.215.838-.451 1.585-.597 2.347-.501 2.616 2.162 5.759 4.643 5.21 1.322-.294 2.531-.186 3.644.143 1.728.512 3.18.255 4.636-.595 2.197-1.286 4.303-1.213 6.452.212.689.457 1.494.679 2.582.459 3.487-.702 6.676-2.453 10.268-2.665 1.457-.085 1.607-.895 1.303-1.808-.6-1.799-.344-3.533.053-5.293.413-1.832.058-2.198-1.85-2.068-.671.045-1.143.45-1.722.64-2.238.73-4.313 2.31-6.926 1.226-.273-.112-.706.156-1.07.209-2.208.321-4.348 1.845-6.659.164-1.279-.931-2.654-1.727-3.919-2.702-1.922-1.482-3.554-3.704-6.556-3.166-1.918.343-3.784.639-5.649-.327-.189-.099-.44-.14-.707-.14-.396 0-.826.093-1.141.236zm93.825 1.723c-3.23.47-6.482 1.001-9.593 1.914-1.5.44-2.317.228-3.115-.815-1.027-1.347-1.929-1.43-3.13-.088-.747.835-1.866 1.363-2.81 2.041-1.573 1.128-1.743 2.116-.693 3.758.324.506.579 1.05.88 1.57.485.84.941 1.689 2.131 1.808 1.322.132 1.748-.81 2.172-1.656.592-1.183 1.528-1.81 2.84-1.586 1.266.215 2.476.711 3.726 1.026 2.511.632 4.941 1.57 7.629 1.523.993-.016 2.153.272 2.641 1.364.888 1.987 1.726 3.996 2.59 5.992 1.389 3.207 1.01 4.062-2.056 6.174-1.567 1.078-3.417 1.32-5.068 2.094-.973.456-2.159.9-2.215 1.993-.058 1.106.927 1.805 1.912 2.442 3.064 1.98 6.531 3.175 9.853 4.62 1.798.784 3.824 1.184 5.985.539 1.657-.494 1.444-1.243.86-2.235-.454-.768-1.116-1.423-1.604-2.176-.491-.76-.612-1.686.062-2.318.624-.585 1.446-1.225 2.454-.315.431.39 1.079.563 1.633.824.715.337 1.558.801 2.197.181.522-.508.326-1.365.084-2.047-.712-2-1.812-3.826-3.004-5.762 1.666-.371 2.663.789 3.909 1.156.412.122.904.773 1.235.214.668-1.123 1.855-2.28 1.4-3.6-.698-2.029-.998-4.297-3.013-5.765-1.002-.73-1.774-1.741-2.725-2.542-.735-.617-.731-.994-.066-1.735 1.371-1.524.926-2.864-1.021-3.504a9.648 9.648 0 00-1.795-.379c-2.824-.35-5.518-.816-7.98-2.492-1.602-1.09-3.423-2.275-5.514-2.275-.259 0-.524.018-.791.057zm-35.807 5.95c-.84.202-1.692.57-2.528.544-2.537-.08-3.702 1.499-4.376 3.375-1.408 3.916-4.151 6.748-7.546 9.111-.571.397-1.374.832-1.987.289-2.021-1.79-4.881-1.53-7.126-2.776-.697-.387-1.616-.515-2.532-.505-4.71.054-9.419.05-14.128.005-1.026-.01-1.896.25-2.557.926-.975.998-2.21 1.76-2.88 3.043-.392.75-.766.664-1.339-.051-.794-.993-1.887-1.493-3.297-1.809-2.341-.524-4.819-.454-7.039-1.405-.848-.363-2.371-.41-1.555-2.049.188-.38.028-.91-.627-.808-.562.087-1.095-.041-1.622-.169-.447-.108-.89-.216-1.342-.193-2.372.119-4.746-.024-7.113-.167-1.863-.113-3.726-.226-5.594-.211-1.264.01-2.453-.126-3.668-.59-2.386-.91-4.939-1.655-7.477-1.177-1.918.361-3.844.364-5.75.596-3.821.464-7.575 1.044-11.267 2.146-3.681 1.097-7.262 2.524-11.361 2.01-3.949-.496-4.942-4.014-7.505-5.883-.098-.072-.06-.354-.035-.53.218-1.517-.853-1.666-1.989-1.675-2.608-.023-5.218-.014-7.827-.01-3.26.007-6.5-.005-9.734.674-4.746.997-9.584 1.52-14.43 1.847-1.44.096-2.957.528-4.284.272-1.642-.316-3.046-.138-4.562.312-2.058.61-3.903 2.028-6.109 1.96-3.976-.123-7.608.811-11.149 2.456-2.83 1.315-2.883 1.212-.843 3.41 1.417 1.527 1.012 3.614-.898 4.143-.91.252-1.843-.21-2.76-.463-2.53-.699-5.057-2.053-7.742-1.053-1.568.583-3.781 1.22-3.572 3.285.173 1.705 2.054 2.364 3.68 2.856.412.124.863.71 1.309.054 1.346-1.976 3.396-2.073 5.682-1.904-1.664 2.21-3.277 4.486-6.153 5.08-2.993.619-6.079.9-9.164.768-1.239-.051-2.107.45-3.023 1.178-1.608 1.275-3.35 2.396-5.037 3.582v1.459c.155-.108.317-.088.32.091 0 .09-.206.183-.32.274v4.378c.118-.081.12-.236.4-.16 2.173.59 4.304 1.248 6.066 2.685.13-.328.353-.401.669-.226l-.372.501c-.339.5-.748.97-.994 1.507-.202.441-.825.951-.21 1.438.47.374 1.036-.046 1.362-.306.891-.712 1.95-1.301 2.991-1.354 3.61-.182 6.865-1.447 10.2-2.558 1.41-.471 2.602-1.089 3.62-2.106 1.11-1.109 2.415-1.913 4.18-2.185-.3.674-.471 1.226-.431 1.835.054.841.742 1.194 1.258.84 1.553-1.074 3.563-1.145 5.055-2.153 2.112-1.425 4.103-2.302 6.68-1.069 1.156.554 2.403.515 3.663.476.892-.027 1.788-.055 2.664.126 3.094.641 6.182 1.333 9.347 1.706 1.321.156 3.112-.313 4.02 1.312.55.985.365 2.902 2.57 1.936.102-.045.366.297.58.418 2.618 1.48 3.33 3.671 3.198 6.512-.167 3.59-.553 7.115-1.072 10.681-.665 4.574 1.687 8.954 2.338 13.493.253 1.766-.345 2.168-1.728 2.387-1.368.215-2.067.762-2.354 2.21-.66 3.339-2.652 6.064-4.929 8.618-2.98 3.343-6.176 6.535-8.001 10.683-.561 1.276-1.511 2.338-2.876 2.963-1.37.626-1.895 1.703-1.679 3.076.473 3.002.358 6.02.377 9.036.006 1.065.07 2.1.345 3.164 1.147 4.442 2.381 8.717 7.324 10.894 2.5 1.101 3.495 3.147 3.08 5.892-.202 1.332.117 2.781.12 4.133.004 2.428 1.472 4.387 1.744 6.677.412 3.491 2.076 6.597 3.891 9.502 1.334 2.133 2.794 4.164 3.676 6.543-.005-4.875-1.449-9.532-2.44-14.22-.54-2.551-2.557-4.757-3.429-7.379-.632-1.906-.764-3.407.784-4.897.704-.677 1.299-.713 1.727.059 1.365 2.464 3.662 4.524 3.471 7.681-.053.884.335 1.901.822 2.685 2.246 3.613 3.332 7.8 6.41 11.021 3.078 3.22 4.126 7.663 6.79 11.159.954 1.252 1.196 2.604.74 3.943-.474 1.39-.316 2.757-.242 4.111.047.858.24 1.876 1.451 2.255 2.643.83 4.68 2.678 6.904 4.134 4.063 2.658 8.057 5.257 13.025 6.125 2.65.462 5.152 1.594 7.958.054.761-.419 2.691-.853 3.627-.129 1.167.9 2.467 1.609 3.626 2.518 3.72 2.922 7.549 5.839 12.796 5.302 2.52-.258 3.827 1.063 5.059 2.728.427.579.67 1.426 1.244 1.735 2.331 1.257 2.725 3.361 3.079 5.584.471 2.954 4.355 6.706 7.462 7.101 1.564.198 2.823.768 3.994 1.699 1.519 1.208 3.385 1.582 5.475 2.117-.881-1.195-1.764-2.082-2.254-3.136-.629-1.354-2.01-1.47-3.062-2.128-4.219-2.636-5.276-6.782-5.027-11.089.19-3.308 1.092-6.579 1.106-9.961.008-2.029-.021-2.568-2.187-2.978-3.963-.749-7.944-1.178-12.132.289.806-1.966 1.496-3.71 2.236-5.437 1.516-3.537 3.044-7.068 4.239-10.722.246-.75.07-1.254-.522-1.753-1.829-1.54-3.986-1.637-6.187-1.186-.912.186-2.324-.076-2.593 1.041-.272 1.121-.98 1.999-1.312 3.075-.998 3.23-5.219 6.507-8.318 6.644-2.878.128-5.571-.474-8.084-1.828-4.227-2.28-6.824-6.362-6.014-10.257.701-3.378 2.275-6.549 3.08-9.932.541-2.279 2.148-4.193 2.301-6.692.109-1.791.976-3.466 3.151-4.242 1.729-.618 3.296-1.621 4.721-2.848.976-.84 2.279-1.329 3.545-1.849 2.472-1.015 5.262-.807 7.646-2.082 1.088-.582 1.972-.341 2.299 1.049.206.875.678 1.662 1.819 1.841 4.492.703 4.49.718 7.244-2.727.342-.428.648-.884 1.007-1.301.739-.859 1.546-1.237 2.866-1.15 2.767.184 5.256.863 7.735 2.086 3.533 1.742 5.808 3.966 5.257 8.067-.114.855.158 1.777.362 2.645.449 1.915 1.093 3.76 2.558 5.228.441.443.795.939 1.516.227 2.081-2.054 4.087-4.075 3.589-7.32-.147-.957-.513-1.81-.821-2.687-.858-2.454-.363-5.049-.861-7.474-.464-2.258.296-3.612 1.937-4.801 3.794-2.749 7.755-5.276 11.66-7.878 3.777-2.515 8.855-3.734 10.194-8.836 2.95-2.449 4.789-5.862 7.898-8.199 1.321-.991 3.199-1.511 3.891-3.047 1.4-3.105 3.801-4.296 7.186-4.072.363.024.729.016 1.094.008.4-.01.799-.02 1.196.013.805.069 1.343-.271 1.232-.977-.395-2.536 1.394-3.832 2.989-5.364 4.28-4.111 9.843-5.765 15.343-7.57.281-.458.645-.424 1.048-.161-.254.153-.506.307-.76.462-1.239.64-1.963 1.449-1.839 2.981.096 1.205-1.024 2.331-.682 3.637.231.883.804.872 1.597.505 2.405-1.115 4.387-2.773 6.225-4.55 1.298-1.254 2.628-1.8 4.492-1.797 2.656.005 5.087-.95 7.266-2.431 1.117-.761 1.343-1.703.571-2.793-.767-1.081-1.7-.532-2.48-.07-3.153 1.872-6.428 1.499-9.731.549-.515-.148-1.161-.462-1.363-.873-.289-.586.457-.953.869-1.246 1.249-.889 2.514-1.788 3.889-2.471.727-.362.893-.773.843-1.401-.057-.718-.772-.699-1.249-.852-.234-.073-.496-.058-.76-.042-.191.011-.384.023-.567 0-1.911-.231-3.784.056-5.655.342-1.738.266-3.476.532-5.243.383-.13-.01-.274.009-.419.029-.366.049-.741.099-.92-.337-.261-.636.034-1.185.591-1.585.396-.285.783-.609 1.227-.797 4.753-2.015 9.743-3.274 14.917-3.445 4.742-.157 9.479-.698 14.234-.41 1.05.065 1.942-.226 2.854-.687 3.744-1.896 6.623-4.759 9.4-7.713.699-.742 1.12-1.804.208-2.763-.769-.808-1.593-1.57-2.421-2.323-.655-.598-1.57-.713-1.932.072-1.034 2.245-1.211.21-1.614-.258-1.213-1.406-1.418-3.494-3.114-4.532-.942-.577-1.269-1.191-1.2-2.198.196-2.868.983-5.677.816-8.59-.067-1.172-.538-1.572-1.64-1.67-.798-.072-1.474.18-2.154.502-3.074 1.455-6.168 2.875-9.216 4.38-.965.477-1.615.171-2.103-.524-.706-1.004-1.152-2.115-.967-3.381.458-3.143-1.338-5.697-4.551-6.436-2.209-.507-4.506-.551-6.663-1.414-1.448-.58-2.971-.31-3.946 1.063-1.595 2.244-3.951 3.694-6.021 5.445-.527.446-.949.474-1.491.065-1.311-.991-1.979-.318-2.131.924-.308 2.52-1.136 4.969-.498 7.618.325 1.356.399 2.851.622 4.267.155.973-.347 1.519-.987 1.562-3.564.244-6.528 2.137-9.816 3.123-1.196.359-2.377.791-2.51 2.426-.112 1.387-.4 2.794-.936 4.14-1.391 3.49-1.476 2.95-4.85 2.822-1.999-.075-3.887-1.615-3.941-2.865-.114-2.657-.162-5.317 2.359-7.21.242-.183.724-.38.422-.848-.185-.287-.5-.291-.823-.34-3.181-.474-6.375-.895-9.532-1.492-1.922-.361-4.167-.552-5.573-1.64-1.489-1.151-3.081-2.087-4.631-3.119-1.793-1.193-2.564-6.12-1.163-7.564 2.267-2.34 4.741-4.457 7.511-6.266 3.067-2.004 6.674-2.832 9.982-4.31 2.791-1.25 5.713-2.197 8.812-2.607 2.592-.343 3.623-1.566 3.691-4.067.029-1.052.004-2.106.004-3.66 1.264 1.307 2.987.958 3.474 2.594.402 1.343 1.558 1.551 2.434.442 2.239-2.832 5.529-4.033 8.859-4.663 2.949-.559 5.521-1.565 8.072-2.975 1.606-.887 1.509-2.362 1.943-3.657.122-.372-.19-1.14-.903-1.12a5.14 5.14 0 01-.803-.058c-.725-.091-1.427-.183-2.372.61-3.142 2.632-7.638 2.778-11.307 4.576-.871.427-.728-.411-.892-.648-.438-.634.101-1.282.306-1.872.429-1.23.149-1.814-1.275-1.95-1.845-.176-2.463-1.272-2.204-2.971.107-.705.122-1.397.334-2.113.353-1.184.003-1.768-.947-1.768-.244 0-.527.038-.849.115zm19.772 81.899l.288.301c.254-.155.506-.309.76-.462-.184-.12-.359-.192-.522-.192-.195 0-.373.103-.526.353zm547.636 1.436c-.32 2.277-.817 4.534-1.069 6.816-.058.516-.995 1.221.22 1.792 1.794.846 3.632 1.438 5.212 1.663 2.712.01 3.975-1.293 3.256-3.308-1.171-3.283-3.737-5.575-6.628-7.527a.777.777 0 00-.427-.152c-.272 0-.495.218-.564.716zm1.288 14.056c-.796.465-.546 1.177-.194 1.914.97 2.027.885 4.05.1 6.177-1.899 5.142-5.629 6.564-10.621 3.83-1.577-.863-2.228.12-2.759 1.149-.468.907-.5 2.025-2.064 1.906-.56-.042-.686.629-.623 1.146.282 2.262 1.3 4.211 3.036 5.729.926.809 1.822.231 1.945-1.035.201-2.073-.193-3.96-1.973-5.598 1.959-.104 3.324.502 4.872 1.452-.953.572-2.053.628-1.779 1.842.208.92.561 1.771 1.524 2.108.962.336 1.799-.366 1.997-1.018.663-2.188 1.807-1.084 2.732-.421 2.367 1.7 5.078 1.64 7.764 1.415 1.11-.093 2.021-.746 2.49-2.047.654-1.813.011-3.428-.302-5.086-.44-2.329-1.416-4.597-1.596-6.931-.184-2.382-.988-4.258-2.809-5.8-.392-.331-.766-.87-1.28-.871a.897.897 0 00-.46.139zm-46.323 118.314c-.964 1.292-1.872 2.64-2.976 3.816-1.483 1.58-3.348 2.692-5.62 2.845-2.473.166-3.572.882-4.401 3.08-.705 1.87-.995 3.956-2.805 5.291-.438.323-.249.725-.28 1.136-.146 1.872-.612 2.126-2.496 1.572-.767-.226-1.506-.505-2.363-.516-.856-.01-1.378.288-1.505.996-.197 1.094-.453 2.245-.297 3.321.551 3.812 2.339 7.165 4.608 10.295.26.361.527.761 1.171.777 1.14.029 2.284-.004 3.416-.038 2.846-.085 5.612-.17 8.036.74 3.472-.002 5.579-1.015 5.413-2.791-.232-2.475 1.375-3.461 3.025-4.609 1.101-.765 1.822-2.12 1.5-3.084-.557-1.666.427-2.068 1.487-2.561.82-.382.9-.733.789-1.644-.142-1.171-.309-2.302-1.011-3.206-1.545-1.986-1.307-3.86.013-5.801.335-.495.671-1.04.796-1.605.347-1.565 1.243-3.28.256-4.725-1.199-1.755-2.959-3.051-5.169-3.715a2.358 2.358 0 00-.66-.12c-.37 0-.64.163-.927.546zm-66.865 3.795c-.469.355.005.81.195.977 2.581 2.268 3.113 5.76 5.48 8.208 1.109 1.144 2.223 2.382 3.194 3.703 1.517 2.061 2.143 4.591 3.764 6.535 2.882 3.456 5.133 7.286 7.589 10.998 1.964 2.97 3.854 5.956 6.915 8.138 1.535 1.094 2.663.672 3.819-.144 1.482-1.049 1.947-2.697 2.36-4.395-.416-1.327-.732-2.678-1.528-3.934-1.443-2.275-2.772-4.567-4.493-6.719-2.037-2.55-3.343-5.671-5.538-8.166-1.732-1.969-2.912-4.835-6.522-4.36-.385.051-.841-.448-1.276-.67-3.467-1.769-5.444-4.827-7.375-7.892-.576-.916-1.305-1.542-2.32-1.534-1.186.01-2.247-.251-3.176-.845-.187-.12-.347-.166-.487-.166-.243 0-.428.136-.601.266zm120.797 20.062c-.935.318-1.8.577-2.83.383-.44-.084-1.231-.481-1.498.536-.228.869.146 1.182.783 1.671 1.694 1.299 3.847 2.125 4.965 3.999-.242.31-.59.297-.927.283-.43-.017-.841-.035-.982.627-.383 1.788.717 3.63 2.592 3.732 3.152.172 5.979 1.356 8.945 2.147 2.722.727 4.391 2.809 6.761 3.909.479.223.513.727.463 1.113-.19 1.483.338 2.962-.038 4.443-.566 2.234-.047 2.735 2.25 2.135.821-.214 1.664-.481 2.227.293 1.988 2.729 4.715 3.212 7.877 2.505.374-.083.789-.174 1.054.168 1.22 1.567 2.06.573 2.952-.355a36.169 36.169 0 011.889-1.803c1.629-1.464 3.123-1.327 4.316.512a8.04 8.04 0 002.526 2.459c1.682 1.046 3.193 2.273 4.749 3.47 1.47 1.131 3.011 2.575 4.946 2.687 2.155.125 4.296.494 6.462.447v-2.189c-.095.145-.169.29-.397.133-4.154-2.869-8.01-6.09-11.965-9.194-.7-.55-.218-.673.185-1.079 1.04-1.045 1.018-3.094.04-3.169-1.609-.122-1.813-1.272-2.36-2.273-1.205-2.201-2.329-4.313-5.356-4.961-2.041-.437-4.294-.762-6.007-2.168-1.411-1.159-3.078-1.676-4.841-2.124-3.39-.864-6.671-2.045-9.718-3.737-1.268-.704-4.21-.263-4.393.852-.435 2.651-2.54 3.598-4.625 4.719-1.578.85-2.685.461-3.556-.866-1.431-2.182-3.044-4.196-2.855-7.113.11-1.682-.656-2.506-1.994-2.506-.478 0-1.029.105-1.64.314zm29.194 37.271c-.656.083-.533.809-.668 1.331-.946 3.644-.955 7.525-3.105 10.869-.812 1.263-1.476 2.624-2.085 3.989-.964 2.164-3.233 3.737-5.668 3.787-1.066.021-2.167.12-3.011-.7-2.117-2.057-4.686-3.591-6.917-5.512-.765-.657-1.232-1.277-1.03-2.536.359-2.24.653-4.377 1.982-6.366 1.039-1.556.421-2.178-1.395-2.441-2.042-.297-4.102-.245-6.149-.59-2.143-.361-4.393-.564-6.44.699-1.998 1.236-3.554 2.917-5.056 4.613-.532.602-1.242 1.278-1.713 1.048-1.227-.598-1.354.329-1.591.873-.38.867-.641 1.78-.596 2.773.094 2.049-.01 2.201-2.054 1.446-1.351-.498-3.211-.343-3.485-2.676-.21-1.787-2.711-3.073-3.919-2.516-2.105.97-4.289 1.857-5.087 4.336-.403 1.25-1.238 2.268-2.816 2.549-.808.144-1.38.84-1.307 1.7.061.707-.292 1.286-.42 1.929-.213 1.069-.502 1.276-1.429.297-.563-.596-.908-1.454-1.765-1.907-.682 1.608-2.205 2.675-2.486 4.38-.488 2.949-2.654 4.419-5.227 5.61-4.837 2.241-9.827 4.078-15.077 5.206-1.474.318-2.619.948-3.625 2.007-.839.881-1.899 1.551-3.137 1.858-2.51.622-3.309 2.31-3.553 4.615-.396 3.731-.507 7.489-1.418 11.183-.495 2.004-1.06 4.075-.833 6.198.52 4.852 1.342 9.684.799 14.598-.092.837-.341 1.637-.404 2.463-.044.582-.348.617-.848.702-1.713.293-1.994 1.301-.838 2.597 1.583 1.777 3.658 1.194 5.456.819 5.123-1.071 10.079-2.788 15.306-3.512 2.177-.302 4.807.172 6.18-2.295.09-.162.573-.173.873-.175 4.089-.017 7.731-1.27 11.029-3.544.382-.264.93-.464 1.389-.445 1.335.058 2.66-.081 3.983-.219 1.504-.157 3.008-.313 4.528-.184a5.87 5.87 0 002.921-.478c1.224-.532 2.397-.475 3.165.949.359.667 1.009 1.336 1.703 1.667 2.39 1.144 3.8 2.696 3.211 5.427-.081.376-.325 1.142.461 1.151 1.104.012 2.229.299 3.32-.323 2.496-1.426 5.046-2.767 7.584-4.147.022.143.091.282.049.378-.495 1.145-.963 2.303-1.523 3.419-1.2 2.394-1.125 3.005.779 4.921.69.694 1.211 1.298.808 2.46-1.21 3.499.983 7.35 4.66 8.511.438.138.933.317 1.268.02 1.711-1.514 3.668-.738 5.537-.576 2.23.191 2.398.581 1.244 2.469.319 0 .671.099.917-.013 4.902-2.231 9.808-4.457 14.676-6.753 1.145-.539 2.101-1.334 2.984-2.3 1.979-2.167 4.147-4.181 6.297-6.199 2.127-1.998 5.106-3.041 6.71-5.663 1.62-2.648 3.617-5.037 5.929-7.193 1.116-1.04 1.972-2.402 1.992-3.897.018-1.37.307-2.712.937-3.771 2.159-3.63 1.864-7.593 2.219-11.499.175-1.91-1.384-3.358-1.176-5.184.205-1.796-.625-2.668-2.428-2.964-.837-.138-2.013-.293-2.374-.839-1.338-2.025-3.566-3.588-3.969-6.097-.542-3.378-1.822-6.124-5.559-7.192-.83-.237-.937-.567-.665-1.435.98-3.14.389-6.259-.595-9.304-1.519-4.708-4.375-8.826-6.549-13.246-.209-.423-.204-1.163-.802-1.163a.757.757 0 00-.104.007zm-305.053 5.213c-1.224 2.873-2.729 5.441-6.023 6.789-3.382 1.384-6.373 3.6-10.065 4.379-.52.11-.852.702-.617 1.179 1.823 3.704.572 7.567.687 11.354.047 1.538-.377 3.191-1.848 3.889-2.202 1.046-2.524 2.343-2.482 4.653.063 3.656.447 6.955 2.936 9.89.532.629.903.892 1.601.651 2.189-.753 4.49-.995 6.709-1.903 2.033-.834 2.217-1.744 2.298-3.38.158-3.209.666-6.315 2.223-9.289 2.456-4.693 5.386-9.271 5.962-14.64.226-2.093 1.253-3.955 1.376-6.065.185-3.171-.416-6.157-1.835-9.108a7.15 7.15 0 00-.922 1.601z" fill="url(#paint0_linear)"/><path d="M236.103 282.721l-1.381-11.154h-2.304l-1.38 11.154" stroke="#FEFEFE" stroke-width=".424" stroke-miterlimit="10" stroke-linejoin="bevel"/><path d="M235.016 272.9l-3.239 3.097 3.916 2.676-4.622 3.776m1.816-12.108c-.884-.311-1.025-1.524-.325-2.16.539-.492.82-.886.82-.886v.745s1.098-1.227.708-2.159c0 0 1.893 2.811.084 4.46m-4.558 12.38h7.611m-6.259 1.827h5.13m142.413-109.509l-1.381-11.154h-2.303l-1.381 11.154" stroke="#FEFEFE" stroke-width=".424" stroke-miterlimit="10" stroke-linejoin="bevel"/><path d="M377.425 165.217l-3.238 3.098 3.916 2.676-4.623 3.776m1.818-12.109c-.883-.31-1.024-1.522-.325-2.159.54-.492.821-.886.821-.886v.746s1.099-1.228.708-2.16c0 0 1.892 2.811.084 4.459m-4.558 12.381h7.612m-6.258 1.827h5.131m74.043-40.216l-1.381-11.154h-2.303l-1.381 11.154" stroke="#FEFEFE" stroke-width=".424" stroke-miterlimit="10" stroke-linejoin="bevel"/><path d="M451.466 126.828l-3.239 3.098 3.917 2.676-4.623 3.776m1.814-12.109c-.883-.311-1.024-1.523-.325-2.16.54-.492.821-.885.821-.885v.745s1.098-1.227.708-2.16c0 0 1.892 2.811.084 4.46m-4.557 12.381h7.613m-6.258 1.827h5.131m96.904 24.729l-1.381-11.154h-2.304l-1.381 11.154" stroke="#FEFEFE" stroke-width=".424" stroke-miterlimit="10" stroke-linejoin="bevel"/><path d="M548.367 153.385l-3.238 3.097 3.917 2.677-4.623 3.776m1.814-12.109c-.883-.311-1.025-1.523-.325-2.16.539-.492.821-.886.821-.886v.746s1.097-1.227.707-2.16c0 0 1.893 2.811.084 4.46m-4.556 12.381h7.612m-6.257 1.827h5.13m138.531-.165l-1.38-11.154H684.3l-1.381 11.154" stroke="#FEFEFE" stroke-width=".424" stroke-miterlimit="10" stroke-linejoin="bevel"/><path d="M686.898 155.047l-3.239 3.097 3.917 2.676-4.622 3.776m1.813-12.108c-.883-.311-1.024-1.523-.324-2.16.539-.491.821-.886.821-.886v.746s1.097-1.227.707-2.159c0 0 1.893 2.811.084 4.459m-4.558 12.381h7.612m-6.254 1.827h5.131" stroke="#FEFEFE" stroke-width=".424" stroke-miterlimit="10" stroke-linejoin="bevel"/><path d="M764.117 285.322l-1.38-11.154h-2.304l-1.381 11.154" stroke="#199B76" stroke-width=".424" stroke-miterlimit="10" stroke-linejoin="bevel"/><path d="M763.032 275.5l-3.239 3.098 3.917 2.675-4.623 3.776m1.814-12.107c-.884-.311-1.025-1.523-.325-2.16a6.25 6.25 0 00.82-.886v.746s1.098-1.227.708-2.16c0 0 1.893 2.811.084 4.46m-4.554 12.38h7.612m-6.257 1.828h5.13" stroke="#199B76" stroke-width=".424" stroke-miterlimit="10" stroke-linejoin="bevel"/><path d="M521.187 208.075l-1.381-11.154h-2.303l-1.381 11.154" stroke="#FEFEFE" stroke-width=".424" stroke-miterlimit="10" stroke-linejoin="bevel"/><path d="M520.097 198.254l-3.238 3.097 3.916 2.677-4.623 3.775m1.817-12.108c-.884-.311-1.025-1.523-.325-2.16.539-.491.82-.885.82-.885v.745s1.099-1.227.708-2.159c0 0 1.892 2.81.084 4.459m-4.554 12.381h7.612m-6.256 1.827h5.13" stroke="#FEFEFE" stroke-width=".424" stroke-miterlimit="10" stroke-linejoin="bevel"/><path d="M463.264 138.639c1.786 0 2.877-.652 3.874-1.687l-1.079-1.088c-.815.76-1.566 1.239-2.741 1.239-1.829 0-3.152-1.525-3.152-3.393 0-1.892 1.323-3.39 3.152-3.39 1.09 0 1.91.475 2.676 1.186l1.075-1.24c-.913-.872-1.976-1.486-3.736-1.486-2.892 0-4.926 2.22-4.926 4.93 0 2.763 2.072 4.929 4.857 4.929zm5.731-.162h1.678v-9.531h-1.678v9.531zm7.571.135c2.003 0 3.411-1.062 3.411-2.845 0-1.606-1.052-2.328-3.071-2.818-1.829-.436-2.266-.764-2.266-1.498 0-.656.577-1.158 1.559-1.158.87 0 1.732.34 2.591.981l.901-1.266c-.971-.776-2.077-1.201-3.465-1.201-1.899 0-3.264 1.131-3.264 2.764 0 1.787 1.149 2.386 3.179 2.86 1.775.425 2.158.792 2.158 1.471 0 .749-.654 1.228-1.694 1.228-1.187 0-2.1-.452-3.013-1.239l-1.009 1.196a5.873 5.873 0 003.983 1.525zM443.349 67.31c2.003 0 3.41-1.061 3.41-2.845 0-1.606-1.051-2.328-3.07-2.818-1.829-.436-2.266-.764-2.266-1.497 0-.657.576-1.158 1.558-1.158.87 0 1.733.34 2.591.98l.901-1.266c-.97-.776-2.076-1.2-3.465-1.2-1.898 0-3.263 1.13-3.263 2.763 0 1.787 1.148 2.386 3.178 2.86 1.775.425 2.158.792 2.158 1.471 0 .749-.653 1.228-1.694 1.228-1.187 0-2.099-.452-3.012-1.24l-1.009 1.197a5.871 5.871 0 003.983 1.525zm7.614-.012c.611 0 1.075-.139 1.485-.37V65.58a2.197 2.197 0 01-1.025.247c-.557 0-.886-.259-.886-.9V61.4h1.938v-1.416h-1.938V58.01h-1.651v1.972h-.912V61.4h.912v3.787c0 1.579.863 2.111 2.077 2.111zm3.066-.123h1.814V65.31h-1.814v1.865zm8.063 0h1.674V64.11h1.899c2.1 0 3.821-1.116 3.821-3.254 0-1.946-1.408-3.212-3.631-3.212h-3.763v9.53zm1.674-4.574v-3.432h1.953c1.253 0 2.061.583 2.061 1.702 0 1.02-.792 1.73-2.061 1.73h-1.953zm10.55 4.736c1.322 0 2.262-.529 2.946-1.347l-.97-.857c-.573.556-1.145.857-1.949.857-1.064 0-1.895-.652-2.073-1.826h5.29c.015-.081.031-.351.031-.463 0-2.07-1.16-3.864-3.453-3.864-2.061 0-3.519 1.687-3.519 3.744 0 2.247 1.608 3.756 3.697 3.756zm-2.062-4.262c.151-1.115.859-1.891 1.868-1.891 1.095 0 1.721.83 1.829 1.891h-3.697zm9.417 4.223c.611 0 1.075-.139 1.484-.37V65.58a2.19 2.19 0 01-1.024.247c-.557 0-.886-.259-.886-.9V61.4h1.938v-1.416h-1.938V58.01h-1.651v1.972h-.913V61.4h.913v3.787c0 1.579.862 2.111 2.077 2.111zm6.272.039c1.323 0 2.262-.529 2.947-1.347l-.971-.857c-.572.556-1.144.857-1.949.857-1.063 0-1.895-.652-2.072-1.826h5.29a4.22 4.22 0 00.03-.463c0-2.07-1.16-3.864-3.453-3.864-2.061 0-3.519 1.687-3.519 3.744 0 2.247 1.609 3.756 3.697 3.756zm-2.061-4.262c.151-1.115.859-1.891 1.868-1.891 1.094 0 1.721.83 1.829 1.891h-3.697zm6.999 4.1h1.651v-2.737c0-1.907 1.01-2.845 2.456-2.845h.097v-1.745c-1.269-.054-2.104.68-2.553 1.757v-1.621h-1.651v7.19zm8.105.135c1.501 0 2.673-.749 2.673-2.258 0-1.324-1.188-1.799-2.236-2.127l-.139-.039c-.789-.258-1.485-.478-1.485-.969 0-.447.368-.748 1.01-.748.599 0 1.338.258 2.03.683l.657-1.174c-.766-.502-1.748-.814-2.649-.814-1.431 0-2.564.83-2.564 2.192 0 1.402 1.188 1.838 2.251 2.15.043.012.081.028.124.043.793.228 1.489.42 1.489.95 0 .505-.41.806-1.122.806-.735 0-1.581-.3-2.359-.888l-.738 1.12c.901.706 2.034 1.073 3.058 1.073zm8.442.015c1.721 0 3.357-1.347 3.357-3.732 0-2.409-1.652-3.756-3.357-3.756-1.156 0-1.906.598-2.44 1.347v-3.949h-1.651v9.94h1.651v-1.116c.507.668 1.257 1.266 2.44 1.266zm-.379-1.432c-1.121 0-2.103-.91-2.103-2.3 0-1.402.982-2.328 2.103-2.328 1.118 0 2.057.911 2.057 2.3 0 1.444-.928 2.328-2.057 2.328zm7.912 1.432c1.118 0 1.787-.586 2.251-1.266v1.116h1.651v-7.191h-1.651v4.06c0 1.116-.669 1.784-1.625 1.784-.982 0-1.539-.641-1.539-1.757v-4.087h-1.651v4.578c0 1.675.94 2.763 2.564 2.763zm5.975-.15h1.651v-2.737c0-1.907 1.009-2.845 2.455-2.845h.097v-1.745c-1.268-.054-2.104.68-2.552 1.757v-1.621h-1.651v7.19zm8.635 2.208c1.295 0 2.305-.317 2.962-.969.599-.598.913-1.498.913-2.71v-5.72h-1.652v1.076c-.557-.667-1.307-1.223-2.521-1.223-1.678 0-3.275 1.25-3.275 3.374 0 2.138 1.581 3.393 3.275 3.393 1.183 0 1.934-.545 2.537-1.32v.555c0 1.444-.805 2.208-2.278 2.208-.982 0-1.802-.285-2.568-.764l-.61 1.239c.924.56 2.03.86 3.217.86zm.135-4.17c-1.129 0-2.045-.802-2.045-1.987 0-1.212.901-2.003 2.045-2.003 1.149 0 2.115.803 2.115 1.988s-.966 2.003-2.115 2.003zM344.675 192.866h1.647v-6.783l5.267 6.783h1.404v-9.531h-1.647v6.589l-5.116-6.589h-1.555v9.531zm14.01.162c2.224 0 3.859-1.703 3.859-3.745 0-2.084-1.624-3.755-3.832-3.755-2.212 0-3.847 1.698-3.847 3.755 0 2.069 1.624 3.745 3.82 3.745zm.027-1.429c-1.284 0-2.196-1.061-2.196-2.316 0-1.277.843-2.316 2.169-2.316 1.296 0 2.208 1.05 2.208 2.316 0 1.266-.847 2.316-2.181 2.316zm5.511 1.267h1.651v-2.737c0-1.907 1.009-2.845 2.455-2.845h.097v-1.745c-1.268-.054-2.104.679-2.552 1.756v-1.621h-1.651v7.192zm8.051.123c.611 0 1.075-.139 1.485-.371v-1.347a2.196 2.196 0 01-1.025.247c-.557 0-.886-.258-.886-.899v-3.528h1.938v-1.417h-1.938v-1.972h-1.651v1.972h-.912v1.417h.912v3.787c0 1.578.862 2.111 2.077 2.111zm3.175-.123h1.651v-4.057c0-1.12.669-1.784 1.624-1.784.982 0 1.539.637 1.539 1.757v4.084h1.651v-4.575c0-1.675-.94-2.763-2.564-2.763-1.117 0-1.786.582-2.25 1.266v-3.868h-1.651v9.94zm11.921 0h1.717l.983-2.301h4.516l.971 2.301h1.771l-4.2-9.601h-1.558l-4.2 9.601zm3.314-3.787l1.636-3.814 1.651 3.814h-3.287zm8.185 3.787h1.651v-5.775h1.883v-1.363h-1.91v-.393c0-.749.329-1.089.955-1.089.356 0 .642.069.971.178v-1.39a4.49 4.49 0 00-1.338-.189c-.712 0-1.242.189-1.624.571-.383.378-.588.98-.588 1.783v.518h-.913v1.374h.913v5.775zm4.76 0h1.651v-2.737c0-1.907 1.009-2.845 2.456-2.845h.096v-1.745c-1.268-.054-2.103.679-2.552 1.756v-1.621h-1.651v7.192zm5.661-8.292h1.775v-1.567h-1.775v1.567zm.07 8.292h1.651v-7.192h-1.651v7.192zm7.134.162c1.404 0 2.236-.556 2.947-1.347l-.998-.981c-.518.533-1.09.899-1.867.899-1.269 0-2.154-1.034-2.154-2.316 0-1.277.87-2.316 2.072-2.316.832 0 1.365.371 1.868.9l1.025-1.1c-.669-.738-1.516-1.239-2.881-1.239-2.154 0-3.735 1.713-3.735 3.755 0 2.069 1.581 3.745 3.723 3.745zm10.503-.162v-4.262c0-1.922-1.036-3.038-3.167-3.038-1.172 0-1.949.247-2.742.598l.453 1.324c.653-.274 1.253-.451 2.061-.451 1.145 0 1.771.544 1.771 1.54v.135a6.073 6.073 0 00-1.991-.301c-1.679 0-2.92.764-2.92 2.359 0 1.47 1.203 2.246 2.564 2.246 1.094 0 1.844-.452 2.335-1.034v.884h1.636zm-1.597-2.602c0 .899-.816 1.513-1.91 1.513-.777 0-1.392-.382-1.392-1.062 0-.721.615-1.146 1.651-1.146.642 0 1.23.124 1.651.286v.409zm135.079-26.909c1.786 0 2.877-.652 3.874-1.687l-1.078-1.088c-.816.76-1.567 1.239-2.742 1.239-1.829 0-3.152-1.525-3.152-3.393 0-1.892 1.323-3.389 3.152-3.389 1.09 0 1.91.474 2.676 1.185l1.075-1.239c-.913-.873-1.976-1.487-3.736-1.487-2.892 0-4.926 2.22-4.926 4.93 0 2.764 2.073 4.929 4.857 4.929zm8.61 0c1.323 0 2.263-.529 2.947-1.347l-.971-.857c-.572.556-1.144.857-1.948.857-1.064 0-1.895-.652-2.073-1.826h5.29c.015-.081.031-.351.031-.463 0-2.069-1.16-3.864-3.453-3.864-2.062 0-3.519 1.687-3.519 3.744 0 2.247 1.608 3.756 3.696 3.756zm-2.061-4.261c.151-1.116.859-1.892 1.868-1.892 1.094 0 1.721.83 1.829 1.892h-3.697zm7 4.099h1.651v-4.057c0-1.119.669-1.783 1.624-1.783.982 0 1.539.637 1.539 1.756v4.084h1.651v-4.574c0-1.676-.94-2.764-2.564-2.764-1.117 0-1.786.583-2.25 1.266v-1.119h-1.651v7.191zm10.874.123c.611 0 1.075-.139 1.484-.37v-1.347a2.19 2.19 0 01-1.024.247c-.557 0-.886-.259-.886-.9v-3.528h1.938v-1.416h-1.938v-1.973h-1.651v1.973h-.913v1.416h.913v3.787c0 1.579.862 2.111 2.077 2.111zm3.174-.123h1.652v-2.737c0-1.907 1.009-2.845 2.455-2.845h.097v-1.745c-1.269-.054-2.104.68-2.552 1.757v-1.621h-1.652v7.191zm11.338 0v-4.262c0-1.922-1.037-3.038-3.167-3.038-1.172 0-1.949.248-2.742.599l.452 1.324c.654-.274 1.253-.452 2.061-.452 1.145 0 1.772.544 1.772 1.54v.135a6.075 6.075 0 00-1.992-.301c-1.678 0-2.92.765-2.92 2.359 0 1.471 1.203 2.246 2.564 2.246 1.095 0 1.845-.451 2.336-1.034v.884h1.636zm-1.597-2.602c0 .9-.816 1.513-1.911 1.513-.777 0-1.392-.382-1.392-1.061 0-.722.615-1.147 1.651-1.147.642 0 1.23.124 1.652.286v.409zm3.658 2.602h1.651v-9.94h-1.651v9.94zm7.27 0h1.717l.982-2.301h4.516l.971 2.301h1.771l-4.199-9.6h-1.559l-4.199 9.6zm3.314-3.787l1.635-3.814 1.652 3.814h-3.287zm10.56 3.922c1.501 0 2.673-.749 2.673-2.258 0-1.324-1.188-1.799-2.236-2.127l-.139-.039c-.789-.258-1.485-.478-1.485-.969 0-.447.368-.748 1.01-.748.599 0 1.338.258 2.03.683l.657-1.174c-.766-.501-1.748-.814-2.649-.814-1.431 0-2.564.83-2.564 2.192 0 1.402 1.188 1.838 2.251 2.151.043.011.081.027.124.042.792.228 1.488.421 1.488.95 0 .505-.409.806-1.121.806-.735 0-1.582-.301-2.359-.888l-.738 1.12c.901.706 2.034 1.073 3.058 1.073zm4.378-8.427h1.775v-1.567h-1.775v1.567zm.069 8.292h1.652v-7.191h-1.652v7.191zm9.85 0v-4.262c0-1.922-1.037-3.038-3.167-3.038-1.172 0-1.949.248-2.742.599l.452 1.324c.654-.274 1.253-.452 2.061-.452 1.145 0 1.772.544 1.772 1.54v.135a6.075 6.075 0 00-1.992-.301c-1.678 0-2.92.765-2.92 2.359 0 1.471 1.203 2.246 2.564 2.246 1.095 0 1.845-.451 2.336-1.034v.884h1.636zm-1.597-2.602c0 .9-.816 1.513-1.911 1.513-.777 0-1.392-.382-1.392-1.061 0-.722.615-1.147 1.651-1.147.642 0 1.23.124 1.652.286v.409zM216.568 302.949h6.698v-1.525h-5.023v-8.005h-1.675v9.53zm14.297 0v-4.261c0-1.923-1.037-3.038-3.167-3.038-1.172 0-1.949.247-2.742.598l.452 1.324c.654-.274 1.253-.452 2.061-.452 1.145 0 1.771.545 1.771 1.541v.135c-.56-.178-1.117-.301-1.991-.301-1.678 0-2.92.764-2.92 2.358 0 1.471 1.203 2.247 2.564 2.247 1.095 0 1.845-.452 2.336-1.035v.884h1.636zm-1.597-2.601c0 .899-.816 1.513-1.911 1.513-.777 0-1.392-.382-1.392-1.062 0-.722.615-1.146 1.651-1.146.642 0 1.23.123 1.652.285v.41zm5.978 2.725c.611 0 1.075-.139 1.485-.371v-1.347a2.196 2.196 0 01-1.025.247c-.557 0-.885-.259-.885-.899v-3.528h1.937v-1.417h-1.937v-1.973h-1.652v1.973h-.912v1.417h.912v3.786c0 1.579.863 2.112 2.077 2.112zm3.202-8.415h1.775v-1.567h-1.775v1.567zm.069 8.291h1.652v-7.191h-1.652v7.191zm3.805 0h1.652v-4.057c0-1.119.669-1.783 1.624-1.783.982 0 1.539.637 1.539 1.756v4.084h1.651v-4.574c0-1.675-.94-2.764-2.564-2.764-1.117 0-1.786.583-2.25 1.266v-1.119h-1.652v7.191zm-26.573 15.879h1.717l.982-2.301h4.517l.97 2.301h1.771l-4.199-9.6h-1.559l-4.199 9.6zm3.314-3.787l1.636-3.814 1.651 3.814h-3.287zm8.09 3.787h1.651v-4.045c0-1.116.626-1.795 1.543-1.795.912 0 1.457.625 1.457 1.741v4.099h1.652v-4.057c0-1.158.642-1.783 1.543-1.783.924 0 1.457.61 1.457 1.756v4.084h1.652v-4.59c0-1.756-.955-2.748-2.525-2.748-1.091 0-1.853.502-2.441 1.266-.382-.764-1.105-1.266-2.142-1.266-1.106 0-1.732.598-2.196 1.239v-1.092h-1.651v7.191zm16.26.162c1.323 0 2.262-.529 2.947-1.347l-.971-.857c-.572.556-1.144.857-1.949.857-1.063 0-1.895-.652-2.072-1.826h5.29c.015-.081.031-.351.031-.463 0-2.069-1.161-3.864-3.454-3.864-2.061 0-3.519 1.687-3.519 3.744 0 2.247 1.609 3.756 3.697 3.756zm-2.061-4.261c.151-1.116.859-1.892 1.868-1.892 1.094 0 1.721.83 1.829 1.892h-3.697zm6.999 4.099h1.652v-2.737c0-1.907 1.009-2.845 2.455-2.845h.097v-1.745c-1.269-.054-2.104.68-2.552 1.757v-1.621h-1.652v7.191zm5.662-8.292h1.775v-1.567h-1.775v1.567zm.069 8.292h1.651v-7.191h-1.651v7.191zm7.135.162c1.404 0 2.235-.556 2.946-1.347l-.997-.981c-.518.533-1.091.9-1.868.9-1.268 0-2.154-1.035-2.154-2.316 0-1.278.87-2.316 2.073-2.316.831 0 1.365.37 1.868.899l1.024-1.1c-.669-.737-1.516-1.239-2.881-1.239-2.154 0-3.735 1.714-3.735 3.756 0 2.069 1.581 3.744 3.724 3.744zm10.503-.162v-4.262c0-1.922-1.037-3.038-3.168-3.038-1.171 0-1.948.248-2.741.599l.452 1.324c.654-.274 1.253-.452 2.061-.452 1.145 0 1.771.544 1.771 1.54v.135a6.064 6.064 0 00-1.991-.301c-1.678 0-2.92.765-2.92 2.359 0 1.471 1.203 2.247 2.564 2.247 1.094 0 1.845-.452 2.336-1.035v.884h1.636zm-1.598-2.602c0 .9-.815 1.513-1.91 1.513-.777 0-1.392-.382-1.392-1.061 0-.722.615-1.147 1.651-1.147.642 0 1.23.124 1.651.286v.409z" fill="#FEFEFE"/><path d="M760.564 201.77c2.003 0 3.41-1.061 3.41-2.845 0-1.606-1.051-2.327-3.07-2.818-1.829-.436-2.266-.764-2.266-1.497 0-.657.576-1.158 1.558-1.158.87 0 1.733.339 2.591.98l.901-1.266c-.97-.776-2.076-1.2-3.464-1.2-1.899 0-3.264 1.131-3.264 2.763 0 1.788 1.148 2.386 3.178 2.861 1.775.424 2.158.791 2.158 1.47 0 .749-.653 1.228-1.694 1.228-1.187 0-2.099-.452-3.012-1.239l-1.009 1.196a5.871 5.871 0 003.983 1.525zm8.623.027c2.224 0 3.859-1.702 3.859-3.744 0-2.085-1.624-3.756-3.832-3.756-2.212 0-3.847 1.698-3.847 3.756 0 2.069 1.624 3.744 3.82 3.744zm.027-1.428c-1.284 0-2.196-1.062-2.196-2.316 0-1.278.843-2.316 2.169-2.316 1.296 0 2.208 1.05 2.208 2.316 0 1.266-.847 2.316-2.181 2.316zm7.993 1.417c1.118 0 1.787-.587 2.251-1.267v1.116h1.651v-7.191h-1.651v4.061c0 1.115-.669 1.783-1.624 1.783-.982 0-1.539-.641-1.539-1.756v-4.088h-1.652v4.578c0 1.675.94 2.764 2.564 2.764zm8.392-.027c.611 0 1.075-.139 1.485-.371v-1.347a2.196 2.196 0 01-1.025.247c-.557 0-.886-.259-.886-.9v-3.528h1.938v-1.416h-1.938v-1.973h-1.651v1.973h-.913v1.416h.913v3.787c0 1.579.862 2.112 2.077 2.112zm3.174-.124h1.652v-4.057c0-1.119.669-1.783 1.624-1.783.982 0 1.539.637 1.539 1.756v4.084h1.651v-4.574c0-1.675-.94-2.764-2.564-2.764-1.117 0-1.786.583-2.25 1.266v-3.868h-1.652v9.94zm11.76.162c1.322 0 2.262-.529 2.947-1.347l-.971-.857c-.572.556-1.145.857-1.949.857-1.063 0-1.895-.652-2.073-1.826h5.29c.016-.081.031-.351.031-.463 0-2.069-1.16-3.864-3.453-3.864-2.061 0-3.519 1.687-3.519 3.744 0 2.247 1.609 3.756 3.697 3.756zm-2.061-4.261c.151-1.116.858-1.892 1.868-1.892 1.094 0 1.72.83 1.829 1.892h-3.697zm13.043 4.099v-4.262c0-1.922-1.036-3.037-3.167-3.037-1.172 0-1.949.247-2.742.598l.453 1.324c.653-.274 1.253-.452 2.061-.452 1.145 0 1.771.545 1.771 1.54v.136a6.044 6.044 0 00-1.991-.302c-1.679 0-2.92.765-2.92 2.359 0 1.471 1.203 2.247 2.564 2.247 1.094 0 1.844-.452 2.335-1.035v.884h1.636zm-1.597-2.602c0 .9-.816 1.513-1.91 1.513-.777 0-1.392-.382-1.392-1.061 0-.722.615-1.146 1.651-1.146.642 0 1.23.123 1.651.285v.409zm6.033 2.737c1.5 0 2.672-.749 2.672-2.258 0-1.324-1.188-1.799-2.235-2.127l-.14-.039c-.789-.258-1.485-.478-1.485-.968 0-.448.368-.749 1.01-.749.599 0 1.338.258 2.03.683l.657-1.173c-.765-.502-1.748-.815-2.649-.815-1.43 0-2.563.83-2.563 2.193 0 1.401 1.187 1.837 2.25 2.15.043.011.081.027.124.042.793.228 1.489.421 1.489.95 0 .505-.41.806-1.122.806-.735 0-1.581-.301-2.359-.887l-.738 1.119c.901.706 2.034 1.073 3.059 1.073zm6.63-.011c.611 0 1.075-.139 1.485-.371v-1.347a2.19 2.19 0 01-1.024.247c-.557 0-.886-.259-.886-.9v-3.528h1.937v-1.416h-1.937v-1.973h-1.651v1.973h-.913v1.416h.913v3.787c0 1.579.862 2.112 2.076 2.112zm6.64-.124h1.717l.982-2.301h4.517l.97 2.301h1.771l-4.199-9.6h-1.558l-4.2 9.6zm3.314-3.787l1.636-3.813 1.651 3.813h-3.287zm10.561 3.922c1.5 0 2.672-.749 2.672-2.258 0-1.324-1.187-1.799-2.235-2.127l-.14-.039c-.788-.258-1.484-.478-1.484-.968 0-.448.367-.749 1.009-.749.599 0 1.338.258 2.03.683l.657-1.173c-.765-.502-1.747-.815-2.648-.815-1.431 0-2.564.83-2.564 2.193 0 1.401 1.187 1.837 2.25 2.15.043.011.081.027.124.042.793.228 1.489.421 1.489.95 0 .505-.41.806-1.122.806-.734 0-1.581-.301-2.358-.887l-.739 1.119c.901.706 2.034 1.073 3.059 1.073zm4.377-8.426h1.775v-1.568h-1.775v1.568zm.07 8.291h1.651v-7.191h-1.651v7.191zm9.849 0v-4.262c0-1.922-1.036-3.037-3.167-3.037-1.172 0-1.949.247-2.742.598l.453 1.324c.653-.274 1.253-.452 2.061-.452 1.144 0 1.771.545 1.771 1.54v.136a6.046 6.046 0 00-1.992-.302c-1.678 0-2.919.765-2.919 2.359 0 1.471 1.202 2.247 2.564 2.247 1.094 0 1.844-.452 2.335-1.035v.884h1.636zm-1.597-2.602c0 .9-.816 1.513-1.91 1.513-.778 0-1.392-.382-1.392-1.061 0-.722.614-1.146 1.651-1.146.642 0 1.229.123 1.651.285v.409zM533.33 235.201c1.689 0 3.039-.679 3.983-1.482v-4.003h-4.065v1.455h2.44v1.783c-.587.437-1.403.722-2.304.722-1.953 0-3.249-1.443-3.249-3.404 0-1.853 1.338-3.39 3.098-3.39 1.214 0 1.937.394 2.672 1.02l1.067-1.267c-.982-.829-2.007-1.293-3.67-1.293-2.88 0-4.926 2.262-4.926 4.93 0 2.806 1.964 4.929 4.954 4.929zm8.457-.012c1.117 0 1.786-.586 2.25-1.266v1.116h1.651v-7.191h-1.651v4.06c0 1.116-.669 1.784-1.624 1.784-.982 0-1.539-.641-1.539-1.757v-4.087h-1.651v4.578c0 1.675.94 2.763 2.564 2.763zm6.071-.15h1.651v-9.94h-1.651v9.94zm4.172 0h1.651v-5.775h1.884v-1.362h-1.911v-.394c0-.749.329-1.089.956-1.089.355 0 .642.07.97.178v-1.39a4.48 4.48 0 00-1.338-.189c-.711 0-1.241.189-1.624.571-.383.379-.588.981-.588 1.784v.517h-.912v1.374h.912v5.775zm-20.092 16.04c1.403 0 2.235-.556 2.946-1.347l-.997-.98c-.518.532-1.091.899-1.868.899-1.268 0-2.154-1.035-2.154-2.316 0-1.278.87-2.316 2.073-2.316.831 0 1.365.37 1.868.899l1.024-1.1c-.669-.737-1.516-1.239-2.881-1.239-2.154 0-3.735 1.714-3.735 3.756 0 2.069 1.581 3.744 3.724 3.744zm7.68 0c2.223 0 3.859-1.702 3.859-3.744 0-2.085-1.624-3.756-3.832-3.756-2.212 0-3.848 1.698-3.848 3.756 0 2.069 1.625 3.744 3.821 3.744zm.027-1.428c-1.284 0-2.196-1.062-2.196-2.316 0-1.278.843-2.316 2.169-2.316 1.295 0 2.208 1.05 2.208 2.316 0 1.266-.847 2.316-2.181 2.316zm7.993 1.417c1.118 0 1.787-.587 2.251-1.267v1.116h1.651v-7.191h-1.651v4.061c0 1.115-.669 1.783-1.624 1.783-.983 0-1.54-.641-1.54-1.756v-4.088h-1.651v4.578c0 1.675.94 2.764 2.564 2.764zm5.975-.151h1.651v-4.057c0-1.119.669-1.783 1.624-1.783.982 0 1.539.637 1.539 1.756v4.084h1.651v-4.574c0-1.675-.939-2.764-2.564-2.764-1.117 0-1.786.583-2.25 1.266v-1.119h-1.651v7.191zm10.874.124c.611 0 1.075-.139 1.484-.371v-1.347a2.19 2.19 0 01-1.024.247c-.557 0-.886-.259-.886-.9v-3.528h1.938v-1.416h-1.938v-1.973h-1.651v1.973h-.913v1.416h.913v3.787c0 1.579.862 2.112 2.077 2.112zm4.826-.124v-2.737c0-1.907 1.009-2.845 2.455-2.845h.097v-1.744c-1.269-.054-2.104.679-2.552 1.756v-1.621h-1.652l1.652 7.191zm4.01-8.291h1.775v-1.568h-1.775v1.568zm.069 8.291h1.651v-7.191h-1.651v7.191zm7.108.162c1.322 0 2.262-.529 2.946-1.347l-.97-.857c-.573.556-1.145.857-1.949.857-1.064 0-1.895-.652-2.073-1.826h5.29c.016-.081.031-.351.031-.463 0-2.069-1.16-3.864-3.453-3.864-2.061 0-3.519 1.687-3.519 3.744 0 2.247 1.609 3.756 3.697 3.756zm-2.061-4.261c.15-1.116.858-1.892 1.867-1.892 1.095 0 1.721.83 1.829 1.892h-3.696zm9.47 4.234c1.5 0 2.672-.749 2.672-2.258 0-1.324-1.187-1.799-2.235-2.127l-.139-.039c-.789-.258-1.485-.478-1.485-.968 0-.448.367-.749 1.009-.749.599 0 1.338.258 2.03.683l.658-1.173c-.766-.502-1.748-.815-2.649-.815-1.431 0-2.564.83-2.564 2.193 0 1.401 1.187 1.837 2.25 2.15.043.011.082.027.124.042.793.228 1.489.421 1.489.95 0 .505-.41.806-1.121.806-.735 0-1.582-.301-2.359-.887l-.739 1.119c.901.706 2.034 1.073 3.059 1.073z" fill="#3DAB72"/><path d="M438.778 69.85a2.68 2.68 0 01-2.683 2.678 2.68 2.68 0 01-2.682-2.678c0-1.479 1.2-2.677 2.682-2.677a2.68 2.68 0 012.683 2.677z" fill="#FEFEFE"/><path d="M448.566 115.374L436.095 69.85s-40.54 24.938-58.727 83.864" stroke="#FEFEFE" stroke-width=".212" stroke-miterlimit="10" stroke-linejoin="bevel"/><path d="M234.954 257.431C280.483 103.647 436.093 69.139 436.093 69.139s73.54 49.502 82.37 119.282" stroke="#FEFEFE" stroke-width=".212" stroke-miterlimit="10" stroke-linejoin="bevel"/><path d="M541.738 142.286c-43.735-54.357-105.643-72.435-105.643-72.435s115.664 23.708 242.497 82.698" stroke="#FEFEFE" stroke-width=".212" stroke-miterlimit="10" stroke-linejoin="bevel"/><path d="M436.095 69.85s92.321 3.166 191.412 38.863a574.767 574.767 0 0113.491 5.051c118.443 46.057 121.139 152.117 121.139 152.117" stroke="#FEFEFE" stroke-width=".212" stroke-miterlimit="10" stroke-linejoin="bevel"/><defs><linearGradient id="paint0_linear" x1=".608" y1="224" x2="847.25" y2="224" gradientUnits="userSpaceOnUse"><stop stop-color="#199779"/><stop offset="1" stop-color="#3EAA6E"/></linearGradient></defs></svg>