<svg width="26" height="22" fill="none" xmlns="http://www.w3.org/2000/svg"><path d="M22.858 4.091h-5.47V1.896A1.902 1.902 0 0015.484 0H9.9a1.9 1.9 0 00-1.903 1.896V4.09h-5.47A2.525 2.525 0 000 6.608v12.875A2.525 2.525 0 002.527 22h20.33a2.525 2.525 0 002.528-2.517V6.608a2.525 2.525 0 00-2.527-2.517zM9.608 1.896c0-.16.131-.29.292-.29h5.585c.16 0 .29.13.29.29V4.09H9.61V1.896zM1.613 6.608c0-.502.41-.911.915-.911h20.33c.505 0 .916.409.916.911v1.189c0 1.114-.75 2.11-1.825 2.422l-8.43 2.445a2.967 2.967 0 01-1.65 0l-8.431-2.445a2.537 2.537 0 01-1.825-2.422V6.608zm21.246 13.786H2.527a.914.914 0 01-.915-.911v-8.417c.406.313.87.548 1.374.695 9.313 2.7 8.834 2.626 9.706 2.626.884 0 .383.078 9.706-2.626a4.13 4.13 0 001.375-.695v8.417c0 .502-.41.911-.915.911z" fill="#fff"/></svg>