<svg width="26" height="26" fill="none" xmlns="http://www.w3.org/2000/svg"><path d="M.508 25.999H25.49c.28 0 .508-.227.508-.508V22.14c0-.945-.648-1.741-1.523-1.967v-2.857a.508.508 0 00-1.016 0v2.857a2.035 2.035 0 00-1.523 1.967v2.843h-3.903L16.61 8.935l4.298-1.115.658 2.457a.508.508 0 00.623.358l1.271-.343v2.454a.508.508 0 001.016 0v-2.73l.628-.17a.508.508 0 00.34-.302c.04-.103.996-2.556.307-5.128C25.063 1.85 23.04.183 22.954.114A.508.508 0 0022.5.018l-2.944.809a.508.508 0 00-.356.62l.656 2.45-18.35 4.757a2.031 2.031 0 001.047 3.925l.494-.128v3.088H2.03a.508.508 0 00-.454.28L.054 18.866a.507.507 0 00-.054.227v6.398c0 .28.227.508.508.508zm7.109-6.398v5.382H4.062v-5.382h3.555zm9.281 4.065l-3.747-5.284h3.278l.469 5.284zm-.638-7.19l-2.502-2.664h2.266l.236 2.664zm-.557.89h-2.997l.258-2.915 2.74 2.915zm-3.166 1.906l4.05 5.711h-4.556l.506-5.711zm10.415 2.868a1.017 1.017 0 012.031 0v2.843h-2.03V22.14zm-7.018-9.344H13.11l.268-3.023 2.235-.58.32 3.603zm6.57-11.726c.487.453 1.778 1.788 2.266 3.61.487 1.816.011 3.627-.19 4.256l-2.165.586-2.103-7.85 2.191-.602zM2.293 11.597a1.016 1.016 0 01-.53-1.96l18.355-4.76.526 1.962-18.351 4.758zm1.768.591l8.273-2.145-1.324 14.94H8.633v-5.89a.508.508 0 00-.508-.508H7.109v-2.539a.508.508 0 00-.508-.507H4.062v-3.35zm-3.046 7.025l1.329-2.659h3.749v2.031h-2.54a.508.508 0 00-.507.508v5.89h-2.03v-5.77z" fill="#fff"/></svg>