<svg width="22" height="24" fill="none" xmlns="http://www.w3.org/2000/svg"><path d="M21.211 5.625h-8.906V.47a.469.469 0 00-.469-.47H.586a.469.469 0 00-.469.469V23.53c0 .26.21.469.469.469H21.21c.259 0 .469-.21.469-.469V6.094a.469.469 0 00-.469-.469zm-8.906.938h8.437v11.812h-8.437V6.563zm-7.5 16.5v-3.75h2.812v3.75H4.805zm3.281-4.688h-3.75a.469.469 0 00-.469.469v4.218H1.055V.939h10.312v22.125H8.555v-4.22a.469.469 0 00-.469-.468zm4.219 4.688v-3.75h8.437v3.75h-8.437z" fill="#fff"/><path d="M5.742 3.75h.938c.258 0 .468-.21.468-.469v-.937a.469.469 0 00-.468-.469h-.938a.469.469 0 00-.469.469v.937c0 .26.21.469.47.469zm0 3.281h.938c.258 0 .468-.21.468-.468v-.938a.469.469 0 00-.468-.469h-.938a.469.469 0 00-.469.469v.938c0 .258.21.468.47.468zm0 3.282h.938c.258 0 .468-.21.468-.47v-.937a.469.469 0 00-.468-.469h-.938a.469.469 0 00-.469.47v.937c0 .259.21.469.47.469zm0 3.281h.938c.258 0 .468-.21.468-.469v-.938a.469.469 0 00-.468-.468h-.938a.469.469 0 00-.469.469v.937c0 .259.21.469.47.469zm0 3.281h.938c.258 0 .468-.21.468-.469v-.937A.469.469 0 006.68 15h-.938a.469.469 0 00-.469.469v.937c0 .26.21.469.47.469zM2.46 3.75h.938c.26 0 .469-.21.469-.469v-.937a.469.469 0 00-.469-.469h-.937a.469.469 0 00-.469.469v.937c0 .26.21.469.469.469zm0 3.281h.938c.26 0 .469-.21.469-.468v-.938a.469.469 0 00-.469-.469h-.937a.469.469 0 00-.469.469v.938c0 .258.21.468.469.468zm0 3.282h.938c.26 0 .469-.21.469-.47v-.937a.469.469 0 00-.469-.469h-.937a.469.469 0 00-.469.47v.937c0 .259.21.469.469.469zm0 3.281h.938c.26 0 .469-.21.469-.469v-.938a.469.469 0 00-.469-.468h-.937a.469.469 0 00-.469.469v.937c0 .259.21.469.469.469zm0 3.281h.938c.26 0 .469-.21.469-.469v-.937A.469.469 0 003.398 15h-.937a.469.469 0 00-.469.469v.937c0 .26.21.469.469.469zm7.5-15h-.937a.469.469 0 00-.468.469v.937c0 .26.21.469.468.469h.938c.259 0 .469-.21.469-.469v-.937a.469.469 0 00-.47-.469zm0 3.281h-.937a.469.469 0 00-.468.469v.938c0 .258.21.468.468.468h.938c.259 0 .469-.21.469-.468v-.938a.469.469 0 00-.47-.469zm0 3.282h-.937a.469.469 0 00-.468.468v.938c0 .259.21.469.468.469h.938a.47.47 0 00.469-.47v-.937a.469.469 0 00-.47-.469zm0 3.281h-.937a.469.469 0 00-.468.469v.937c0 .259.21.469.468.469h.938c.259 0 .469-.21.469-.469v-.938a.469.469 0 00-.47-.468zm0 3.281h-.937a.469.469 0 00-.468.469v.937c0 .26.21.469.468.469h.938c.259 0 .469-.21.469-.469v-.937A.469.469 0 009.96 15zm8.673-6.562h-.938a.469.469 0 00-.468.468v.938c0 .259.21.469.468.469h.938c.259 0 .468-.21.468-.47v-.937a.469.469 0 00-.468-.469zm0 3.281h-.938a.469.469 0 00-.468.469v.937c0 .259.21.469.468.469h.938c.259 0 .468-.21.468-.469v-.938a.469.469 0 00-.468-.468zm0 3.281h-.938a.469.469 0 00-.468.469v.937c0 .26.21.469.468.469h.938c.259 0 .468-.21.468-.469v-.937a.469.469 0 00-.468-.469zm-3.282-6.562h-.937a.469.469 0 00-.469.468v.938c0 .259.21.469.47.469h.936c.26 0 .47-.21.47-.47v-.937a.469.469 0 00-.47-.469zm0 3.281h-.937a.469.469 0 00-.469.469v.937c0 .259.21.469.47.469h.936c.26 0 .47-.21.47-.469v-.938a.469.469 0 00-.47-.468zm0 3.281h-.937a.469.469 0 00-.469.469v.937c0 .26.21.469.47.469h.936c.26 0 .47-.21.47-.469v-.937a.469.469 0 00-.47-.469z" fill="#fff"/></svg>