<svg width="20" height="22" fill="none" xmlns="http://www.w3.org/2000/svg"><path d="M19.068 3.91V2.62H8.94V0H3.464v2.62H.93v1.29h1.132v16.8H.931V22h18.137v-1.29h-1.133V3.91h1.133zM4.753 1.29H7.65v1.33H4.753V1.29zm11.893 15.24H3.352V8.09h13.294v8.438zM3.352 20.71v-2.89h13.294v2.892H3.352zM16.646 6.803H3.352V3.91h13.294v2.892z" fill="#fff"/><path d="M10 15.055a2.249 2.249 0 002.246-2.247c0-1.402-1.637-2.866-1.824-3.028L10 9.412l-.423.368c-.186.162-1.823 1.626-1.823 3.028A2.249 2.249 0 0010 15.055zm-.002-3.888c.095.102.199.219.302.347.417.512.657.984.657 1.294a.958.958 0 01-1.915 0c0-.45.476-1.125.956-1.64z" fill="#fff"/></svg>