<svg width="26" height="23" fill="none" xmlns="http://www.w3.org/2000/svg"><path d="M25.99 21.258L24.472 6.776a.762.762 0 00-.757-.682h-3.808a.762.762 0 00-.758.682l-1.052 10.032H14.93v-4.57a.762.762 0 00-.762-.762h-.863V9.191a.762.762 0 00-.761-.762H2.285a.762.762 0 00-.762.762v2.285H.762a.762.762 0 00-.762.762v9.14c0 .421.341.762.762.762h24.476a.762.762 0 00.753-.882zM3.048 9.953h8.734v1.523H3.047V9.953zm3.656 10.664H4.57v-1.524h2.133v1.524zm3.656 0H8.226v-1.524h2.133v1.524zm3.047 0h-1.524v-2.285a.762.762 0 00-.762-.762H3.81a.762.762 0 00-.762.762v2.285H1.523V13h11.883v7.617zm4.29 0H14.93v-2.285h3.007l-.24 2.285zm1.532 0l1.363-13h2.437l1.364 13h-5.164zM20.286 4.57a.76.76 0 00.761-.761V.762a.762.762 0 10-1.523 0v3.047c0 .42.341.761.762.761zm3.047 0a.76.76 0 00.761-.761V2.285a.762.762 0 10-1.523 0V3.81c0 .42.34.761.762.761z" fill="#fff"/><path d="M4.367 16.046a.762.762 0 100-1.523.762.762 0 000 1.523zm3.047 0a.762.762 0 100-1.523.762.762 0 000 1.523zm3.046 0a.762.762 0 10.001-1.523.762.762 0 000 1.523z" fill="#fff"/></svg>