<svg width="26" height="26" fill="none" xmlns="http://www.w3.org/2000/svg"><path d="M24.918 15.983a5.342 5.342 0 00-1.74-1.472 4.132 4.132 0 00.568-2.096v-1.953a4.17 4.17 0 00-4.165-4.164 4.18 4.18 0 00-2.274.675v-3.93A3.046 3.046 0 0014.264 0H7.382v3.074c0 1.03.515 1.943 1.301 2.494v1.399a4.176 4.176 0 00-2.263-.669 4.17 4.17 0 00-4.166 4.164v1.953c0 .764.207 1.48.567 2.097a5.34 5.34 0 00-1.739 1.471A5.244 5.244 0 000 19.19V26h26v-6.81c0-1.17-.374-2.279-1.082-3.207zM8.905 1.523h5.359c.838 0 1.52.682 1.52 1.52v1.55h-5.36a1.522 1.522 0 01-1.519-1.52v-1.55zm6.879 4.594V8.18a2.79 2.79 0 01-2.789 2.787 2.79 2.79 0 01-2.788-2.787V6.11c.072.005.144.007.218.007h5.358zM5.67 24.477H1.523V19.19a3.79 3.79 0 012.342-3.488 4.15 4.15 0 001.805.81v7.965zm0-9.646v.117a2.646 2.646 0 01-1.893-2.533v-1.952A2.644 2.644 0 016.42 7.822c1.106 0 2.104.693 2.485 1.725a4.3 4.3 0 00.47.972A4.367 4.367 0 005.67 14.83zm6.563 9.646h-5.04V14.83a2.841 2.841 0 012.367-2.799c.018.532.064 1.167.164 1.857.351 2.405 1.216 4.39 2.51 5.767v4.82zm-1.145-12.431a4.287 4.287 0 001.907.445c.685 0 1.334-.161 1.91-.446-.061 1.623-.41 4.27-1.91 6.164-1.495-1.891-1.845-4.541-1.907-6.163zm7.71 12.43h-5.041v-4.82c1.293-1.377 2.158-3.363 2.509-5.771.1-.688.146-1.322.164-1.853a2.841 2.841 0 012.367 2.8v9.645zM16.615 10.52c.193-.298.35-.621.466-.963l.008.003a2.656 2.656 0 012.49-1.737 2.644 2.644 0 012.643 2.64v1.953c0 1.2-.805 2.215-1.902 2.536v-.12a4.367 4.367 0 00-3.705-4.312zm7.86 13.958H20.32v-7.963a4.15 4.15 0 001.814-.812 3.79 3.79 0 012.342 3.488v5.287z" fill="#fff"/></svg>