<svg width="26" height="20" fill="none" xmlns="http://www.w3.org/2000/svg"><path d="M25.567 11.533h-3.034a1.324 1.324 0 00-.382-.928 1.297 1.297 0 00-.918-.386H19.5c-.345.001-.674.14-.918.386s-.381.58-.382.928h-1.733V9.78c.344 0 .674-.14.918-.386.243-.246.38-.58.382-.928v-1.75a1.325 1.325 0 00-.382-.928 1.297 1.297 0 00-.918-.386V.585a.44.44 0 00-.127-.31.43.43 0 00-.307-.128H9.967a.431.431 0 00-.307.129.44.44 0 00-.127.31v4.816c-.344.001-.674.14-.918.386-.243.246-.38.58-.382.928v1.751c.001.349.139.682.382.928.244.246.574.385.918.386v1.752H7.8a1.324 1.324 0 00-.382-.928 1.297 1.297 0 00-.918-.386H4.767c-.345.001-.675.14-.918.386-.244.246-.381.58-.382.928H.433a.431.431 0 00-.306.128.44.44 0 00-.127.31v6.13a.44.44 0 00.127.31.431.431 0 00.306.128h3.034c0 .348.138.682.382.928.243.246.573.385.918.386H6.5c.344-.001.675-.14.918-.386.244-.246.381-.58.382-.928h10.4c.001.348.138.682.382.928s.573.385.918.386h1.733c.345-.001.675-.14.918-.386.244-.246.381-.58.382-.928h3.034a.431.431 0 00.306-.128.44.44 0 00.127-.31v-6.13a.44.44 0 00-.127-.31.431.431 0 00-.306-.128zm-22.1 6.13h-2.6v-5.255h2.6v5.255zm3.466.876a.44.44 0 01-.127.31.431.431 0 01-.306.128H4.767a.431.431 0 01-.307-.128.44.44 0 01-.127-.31v-7.006a.44.44 0 01.127-.31.431.431 0 01.307-.128H6.5a.43.43 0 01.306.128.44.44 0 01.127.31v7.006zM10.4 1.023h5.2v4.38h-5.2v-4.38zM9.1 8.467V6.716a.44.44 0 01.127-.31.431.431 0 01.306-.128h6.934a.43.43 0 01.306.128.44.44 0 01.127.31v1.751a.44.44 0 01-.127.31.431.431 0 01-.306.128H9.533a.431.431 0 01-.306-.128.44.44 0 01-.127-.31zm9.1 9.196H7.8v-5.255h2.167a.431.431 0 00.306-.128.44.44 0 00.127-.31V9.782h5.2v2.19a.44.44 0 00.127.31.431.431 0 00.306.127H18.2v5.255zm3.467.876a.44.44 0 01-.127.31.43.43 0 01-.307.128H19.5a.431.431 0 01-.306-.128.44.44 0 01-.127-.31v-7.006a.44.44 0 01.127-.31.431.431 0 01.306-.128h1.733a.43.43 0 01.307.128.44.44 0 01.127.31v7.006zm3.466-.876h-2.6v-5.255h2.6v5.255z" fill="#fff"/><path d="M1.733 13.284H2.6v.876h-.867v-.876zm7.8 2.628h.867v.875h-.867v-.875zm1.734 0H13v.875h-1.733v-.875zM23.4 13.284h.867v.876H23.4v-.876z" fill="#fff"/></svg>