<svg width="26" height="19" fill="none" xmlns="http://www.w3.org/2000/svg"><path d="M25.927 10.008c-.134-.637-.822-1.15-2.07-1.527-1.045-.316-2.36-.502-3.808-.533l-.14-5.89c-.192-.58-.88-1.05-2.044-1.402C16.7.304 15.184.113 13.585.113c-1.594 0-3.1.191-4.239.543-.936.29-2.06.828-2.06 1.754a.99.99 0 00.016.171l.057 2.36A6.202 6.202 0 000 11.027a6.19 6.19 0 0010.098 4.808c.973.227 2.116.352 3.327.362.264 1.434 3.375 2.09 6.273 2.09 1.594 0 3.094-.196 4.243-.548.947-.29 2.06-.833 2.06-1.76l-.073-5.971zM9.637 1.65c1.044-.321 2.447-.502 3.937-.502 1.475 0 2.93.18 3.985.502 1.128.341 1.372.693 1.372.765 0 .073-.244.425-1.372.766-1.05.316-2.505.502-3.98.502-1.428 0-2.784-.165-3.813-.465-1.113-.321-1.429-.678-1.455-.792 0-.005-.005-.01-.01-.016 0-.108.347-.455 1.335-.76zm9.377 2.044v1.294a.525.525 0 00-.083.29c0 .067-.244.424-1.367.765-1.05.321-2.504.502-3.98.502-1.277 0-2.53-.134-3.524-.388-.015-.005-.03-.005-.04-.01a5.942 5.942 0 00-1.616-.916l-.036-1.46c.357.182.73.326 1.118.43 1.123.326 2.577.502 4.104.502 1.6 0 3.115-.192 4.275-.543a5.097 5.097 0 001.149-.466zM9.662 14.84a5.156 5.156 0 01-7.287-.341 5.16 5.16 0 015.341-8.405 5.038 5.038 0 011.832 1.02 5.151 5.151 0 011.698 2.872c.067.341.103.693.103 1.04a5.12 5.12 0 01-1.687 3.814zm1.314.114c.42-.512.756-1.087.994-1.703.445.037.911.062 1.392.068a.53.53 0 000 .18l.021 1.667a15.747 15.747 0 01-2.406-.212zm1.382-4.544c.306.02.621.031.947.036.005.037.016.073.026.109l.02 1.723c-.372-.005-.74-.02-1.086-.046a6.357 6.357 0 00.093-1.822zm1.263-.994h-.041c-.502 0-.979-.02-1.424-.056a6.23 6.23 0 00-.92-1.926 18.7 18.7 0 002.344.15c1.599 0 3.115-.191 4.274-.543a5.48 5.48 0 001.154-.476v1.382c-1.293.036-2.51.202-3.477.476-.911.259-1.548.59-1.91.993zm.714.772c.088-.16.476-.477 1.485-.756 1.015-.285 2.334-.44 3.721-.44h.042c1.48 0 2.929.17 3.98.492 1.086.331 1.35.662 1.366.75v.005c-.005.078-.259.435-1.408.777-1.06.315-2.463.486-3.938.486-1.372 0-2.691-.155-3.706-.43-.973-.263-1.392-.569-1.516-.745a.444.444 0 00-.026-.14zm10.63 5.785c0 .073-.228.43-1.33.771-1.056.326-2.453.508-3.944.508-1.495 0-2.887-.176-3.927-.492-.989-.305-1.32-.647-1.32-.76v-.011l-.005-.316-.016-1.17a6.39 6.39 0 001.289.466c1.087.285 2.458.44 3.87.44 1.6 0 3.1-.191 4.26-.543.378-.114.813-.27 1.123-.471v1.578zm-.067-2.867c0 .073-.238.425-1.351.766-1.06.321-2.469.497-3.97.497-2.815 0-4.73-.626-5.175-1.123l-.02-1.635c1.221.636 3.276.926 5.2.926 1.574 0 3.07-.186 4.224-.528a5.733 5.733 0 001.164-.47v1.293c-.005.078-.072.17-.072.274z" fill="#fff"/></svg>